<?xml version="1.0" encoding="UTF-8"?>
<svg id="Layer_1" data-name="Layer 1" xmlns="http://www.w3.org/2000/svg" viewBox="0 0 125.6 156.7">
  <defs>
    <style>
      .cls-1 {
        fill: #fff;
      }

      .cls-2 {
        fill: #232c33;
      }
    </style>
  </defs>
  <rect class="cls-1" x="3.9" y="3.9" width="117.8" height="148.9" rx="24.1" ry="24.1"/>
  <path class="cls-2" d="m110.5,0H15.1C6.8,0,0,6.8,0,15.1v126.6c0,8.3,6.8,15.1,15.1,15.1h95.5c8.3,0,15.1-6.8,15.1-15.1V15.1c0-8.3-6.8-15.1-15.1-15.1ZM7.8,34.4h110.1v14.3H7.8v-14.3ZM117.8,15.1v11.5h-53.7V7.8h46.4c4,0,7.3,3.3,7.3,7.3ZM15.1,7.8h46.4v18.8H7.8v-11.5c0-4,3.3-7.3,7.3-7.3Zm95.5,141.2H15.1c-4,0-7.3-3.3-7.3-7.3V56.4h110.1v85.2c0,4-3.3,7.3-7.3,7.3Z"/>
</svg>
