<?xml version="1.0" encoding="UTF-8"?>
<svg id="Layer_2" data-name="Layer 2" xmlns="http://www.w3.org/2000/svg" viewBox="0 0 120.5 161.3">
  <defs>
    <style>
      .cls-1 {
        fill: #fff;
      }

      .cls-2 {
        fill: #232c33;
      }
    </style>
  </defs>
  <g>
    <path class="cls-1" d="m96.4,8.5c-12-3.4-24.1-4.9-36.2-4.8-12.1-.2-24.2,1.4-36.2,4.8C7.8,13-.3,28.4,5.6,44.3c4,10.8,9.4,21.1,14.4,31.4.6,1.2.7,2.6.3,3.8-6,20.7-8.9,41.9-7.2,63.8.7,8.6,3.9,13.5,12.7,13.9,11.1.6,57.9.6,69,0,8.8-.5,12-5.3,12.7-13.9,1.7-21.8-1.2-43-7.2-63.8-.4-1.3-.3-2.6.3-3.8,4.9-10.3,10.3-20.6,14.4-31.4,5.9-15.8-2.2-31.2-18.5-35.8ZM27.2,59.4c-2.6-4.1-4.3-8.9-6.2-13.4-4.8-11.7-2.9-17.5,7.7-20.4,3-.8,6.1,1,6.8,4,1.9,8.5,3.8,17.1,5.8,25.8.6,2.9-1.1,5.7-4,6.5s-9.1-.8-10.2-2.6Zm43.7-5.2c-.1,3-2.6,5.3-5.6,5.2-1.7,0-3.4,0-5.1,0-1.7,0-3.4,0-5.1,0-3,.1-5.5-2.2-5.6-5.2-.4-9-.9-18.1-1.3-27.5-.2-3.1,2.3-5.7,5.4-5.7h13.2c3.1,0,5.6,2.6,5.4,5.7-.5,9.5-1,18.6-1.3,27.5Zm28.5-8.2c-1.9,4.6-3.6,9.3-6.2,13.4-1.1,1.8-8.5,3-10.2,2.6-2.9-.7-4.6-3.6-4-6.5,2-8.8,3.9-17.3,5.8-25.8s3.8-4.9,6.8-4c10.7,2.9,12.5,8.7,7.7,20.4Z"/>
    <path class="cls-2" d="m61.8,3.7c11.6,0,23.1,1.6,34.6,4.8,16.3,4.6,24.4,20,18.5,35.8-4,10.8-9.4,21.1-14.4,31.4-.6,1.2-.7,2.6-.3,3.8,6,20.7,8.9,41.9,7.2,63.8-.7,8.6-3.9,13.5-12.7,13.9-5.6.3-20,.4-34.5.4s-28.9-.1-34.5-.4c-8.8-.5-12-5.3-12.7-13.9-1.7-21.8,1.2-43,7.2-63.8.4-1.3.3-2.6-.3-3.8-4.9-10.3-10.3-20.6-14.4-31.4C-.3,28.4,7.8,13,24.1,8.5c11.5-3.2,23-4.8,34.6-4.8.5,0,1.1,0,1.6,0,.5,0,1.1,0,1.6,0m-6.9,55.7c0,0,.1,0,.2,0,.9,0,1.9,0,2.8,0s1.5,0,2.3,0c.8,0,1.5,0,2.3,0s1.9,0,2.8,0c0,0,.1,0,.2,0,2.9,0,5.3-2.3,5.4-5.2.4-9,.9-18.1,1.3-27.5.2-3.1-2.3-5.7-5.4-5.7h-13.2c-3.1,0-5.6,2.6-5.4,5.7.5,9.5,1,18.6,1.3,27.5.1,2.9,2.5,5.2,5.4,5.2m29.1,2.6c2.6,0,8.2-1.1,9.2-2.7,2.6-4.1,4.3-8.9,6.2-13.4,4.8-11.7,2.9-17.5-7.7-20.4-.5-.1-1-.2-1.5-.2-2.5,0-4.8,1.7-5.3,4.2-1.9,8.5-3.8,17.1-5.8,25.8-.6,2.9,1.1,5.7,4,6.5.2,0,.6,0,1,0m-47.7,0c.4,0,.8,0,1,0,2.9-.7,4.6-3.6,4-6.5-2-8.8-3.9-17.3-5.8-25.8-.6-2.6-2.8-4.2-5.3-4.2-.5,0-1,0-1.5.2-10.7,2.9-12.5,8.7-7.7,20.4,1.9,4.6,3.6,9.3,6.2,13.4.9,1.5,6.5,2.7,9.2,2.7M61.8,0c-.5,0-1.1,0-1.6,0-.5,0-1.1,0-1.6,0-11.9,0-23.9,1.7-35.5,4.9C14.1,7.4,7,13,3.1,20.6c-3.8,7.5-4.2,16.4-1,24.9,3.2,8.6,7.3,17,11.3,25.1,1.1,2.2,2.2,4.4,3.2,6.6.2.4.2.8,0,1.2-6.6,22.6-9,43.9-7.4,65.1.9,11.1,6.2,16.8,16.2,17.3,6.2.3,22,.4,34.7.4s28.5-.1,34.7-.4c10-.5,15.3-6.2,16.2-17.3,1.6-21.2-.8-42.4-7.4-65.1-.1-.4,0-.9,0-1.2,1.1-2.2,2.1-4.4,3.2-6.6,3.9-8.1,8-16.4,11.3-25.1,3.2-8.6,2.8-17.4-1-24.9-3.9-7.6-10.9-13.2-19.9-15.7C85.7,1.7,73.7,0,61.8,0h0Zm-6.9,55.7c-1,0-1.7-.7-1.8-1.7-.3-8-.7-16-1.2-24.5l-.2-3.1c0-.7.3-1.1.5-1.3.2-.2.6-.5,1.3-.5h13.2c.7,0,1.1.3,1.3.5.2.2.5.7.5,1.3l-.2,3.1c-.4,8.5-.8,16.4-1.2,24.4,0,.9-.8,1.7-1.8,1.7-1,0-2,0-3,0s-1.5,0-2.3,0c-.8,0-1.5,0-2.3,0s-1.9,0-2.9,0h0Zm28.9,2.6c-.9-.3-1.4-1.2-1.2-2.1l3.1-13.7,2.7-12.2c.2-.9,1.1-1.4,1.7-1.4.2,0,.3,0,.5,0,3.8,1,6.1,2.4,7,4.2,1.1,2.2.5,5.9-1.7,11.2-.3.7-.6,1.5-.9,2.2-1.5,3.7-2.9,7.2-4.8,10.3-1.1.6-4.3,1.3-6.3,1.3s-.1,0-.2,0h0Zm-53.8-1.3c-1.9-3.1-3.3-6.6-4.8-10.3-.3-.7-.6-1.5-.9-2.2-2.2-5.4-2.8-9.1-1.7-11.3.9-1.8,3.2-3.1,7-4.2.2,0,.3,0,.5,0h0c.7,0,1.5.4,1.7,1.4l2.7,12.1,3.1,13.8c.2.9-.3,1.8-1.2,2.1,0,0-.1,0-.2,0-2,0-5.2-.7-6.3-1.3h0Z"/>
  </g>
  <g>
    <path class="cls-1" d="m67.4,69.6c-4.7-1.1-9.6-1.1-14.3,0-11.2,2.6-31.6,11.7-31.6,43.1s-3,37.6,38.7,37.6,38.7,5.1,38.7-37.6-20.4-40.5-31.6-43.1Z"/>
    <path class="cls-2" d="m60.2,72.5c2.1,0,4.3.2,6.3.7,10.7,2.5,28.7,10.9,28.7,39.5s-.5,25.6-3,30c-1.8,3.2-5.2,4.1-14.8,4.1s-4.4,0-6.9,0c-3.1,0-6.5-.1-10.3-.1s-8.5,0-12.1.1c-2.8,0-5.3,0-7.5,0-6.8,0-11.3-.4-13.1-2.1-2.5-2.5-2.5-10.6-2.4-24,0-2.5,0-5.1,0-8,0-28.5,18-37,28.7-39.5,2.1-.5,4.2-.7,6.3-.7m0-3.7c-2.4,0-4.8.3-7.2.8-11.2,2.6-31.6,11.7-31.6,43.1s-1.9,37.8,19.2,37.8,11.5-.2,19.6-.2,12.6.2,17.2.2c19.4,0,21.5-3.3,21.5-37.8s-20.4-40.5-31.6-43.1c-2.4-.5-4.8-.8-7.2-.8h0Z"/>
  </g>
</svg>