<?xml version="1.0" encoding="utf-8"?>
<!-- Generator: Adobe Adobe Illustrator 24.2.0, SVG Export Plug-In . SVG Version: 6.00 Build 0)  -->
<svg version="1.1" xmlns="http://www.w3.org/2000/svg" xmlns:xlink="http://www.w3.org/1999/xlink" x="0px" y="0px"
	 viewBox="0 0 358 417" style="enable-background:new 0 0 358 417;" xml:space="preserve">
<style type="text/css">
	.st0{fill:#FFFFFF;stroke:#232C33;stroke-width:3;stroke-linecap:round;stroke-linejoin:round;stroke-miterlimit:10;}
	.st1{fill:none;stroke:#232C33;stroke-linecap:round;stroke-linejoin:round;stroke-miterlimit:10;}
	.st2{fill:none;stroke:#232C33;stroke-width:3;stroke-linecap:round;stroke-linejoin:round;stroke-miterlimit:10;}
	.st3{fill:#232C33;}
	.st4{fill:#FFFFFF;}
	.st5{fill:#73787F;}
	.st6{fill:#BEC5D3;}
	.st7{fill:#E5E9F5;}
	.st8{fill:#A1A7B8;}
	.st9{fill:#4E4E51;}
	.st10{fill:#7A3D05;}
	.st11{fill:#C79C6F;stroke:#7A3D05;stroke-width:5;stroke-miterlimit:10;}
	.st12{fill:#AA7D50;stroke:#7A3D05;stroke-width:4;stroke-miterlimit:10;}
	.st13{fill:#AA7D50;}
	.st14{fill:none;stroke:#F2C7A0;stroke-width:6;stroke-linecap:round;stroke-miterlimit:10;}
	.st15{fill:#C79C6F;}
	.st16{fill:#663300;}
	.st17{fill:#D6D6D6;}
	.st18{fill:#B2B0AF;}
	.st19{fill:none;stroke:#FFFFFF;stroke-width:6;stroke-linecap:round;stroke-miterlimit:10;}
	.st20{fill:none;stroke:#C79C6F;stroke-width:5;stroke-linecap:round;stroke-miterlimit:10;}
	.st21{fill:#565655;stroke:#282828;stroke-width:5;stroke-miterlimit:10;}
	.st22{fill:#3A3837;stroke:#282828;stroke-width:4;stroke-miterlimit:10;}
	.st23{fill:#333333;}
	.st24{fill:none;stroke:#A8A6A5;stroke-width:6;stroke-linecap:round;stroke-miterlimit:10;}
	.st25{fill:#E4E9F3;}
	.st26{fill:#BFC5D8;}
	.st27{fill:#E04E1B;}
	.st28{fill:#B23109;}
	.st29{fill:none;stroke:#F7997C;stroke-width:8;stroke-linecap:round;stroke-linejoin:round;stroke-miterlimit:10;}
	.st30{fill:#7CD5F5;}
	.st31{fill:#6CC0E2;}
	.st32{fill:none;stroke:#F9F9F9;stroke-width:8;stroke-linecap:round;stroke-linejoin:round;stroke-miterlimit:10;}
	.st33{fill:#DD1D6B;}
	.st34{fill:#B2084D;}
	.st35{fill:#DD1D6B;stroke:#B2084D;stroke-width:8;stroke-linecap:round;stroke-linejoin:round;stroke-miterlimit:10;}
	.st36{fill:#EA3B8B;}
	.st37{fill:#32373C;}
	.st38{fill:#636462;}
	.st39{fill:#3E4042;}
	.st40{fill:#999999;}
	.st41{fill:#C4BFC1;}
	.st42{fill:#2C2C2D;}
	.st43{fill:#A0A1A3;}
	.st44{fill:none;}
	.st45{fill:#C4BFC1;stroke:#16C916;stroke-miterlimit:10;}
	.st46{fill:#EBF0F5;stroke:#45494F;stroke-width:4;stroke-linecap:round;stroke-linejoin:round;stroke-miterlimit:10;}
	.st47{fill:#BEC5CC;stroke:#45494F;stroke-width:4;stroke-linecap:round;stroke-linejoin:round;stroke-miterlimit:10;}
</style>
<g id="Layer_1">
</g>
<g id="Layer_2">
	<g>
		<path class="st25" d="M16,98.93c-1.38,0-2.5-1.12-2.5-2.5V42.96c0-19.87,16.17-36.04,36.04-36.04h258.93
			c19.87,0,36.04,16.17,36.04,36.04v53.46c0,1.38-1.12,2.5-2.5,2.5H16z"/>
		<path class="st26" d="M308.47,9.43c18.52,0,33.54,15.01,33.54,33.54v53.46H16V42.96C16,24.44,31.02,9.43,49.54,9.43H308.47
			 M308.47,4.43H49.54C28.29,4.43,11,21.71,11,42.96v53.46c0,2.76,2.24,5,5,5h326c2.76,0,5-2.24,5-5V42.96
			C347,21.71,329.72,4.43,308.47,4.43L308.47,4.43z"/>
	</g>
	<g>
		<path class="st25" d="M40,410.93c-14.61,0-26.5-11.89-26.5-26.5c0-1.38,1.12-2.5,2.5-2.5h326c1.38,0,2.5,1.12,2.5,2.5
			c0,14.61-11.89,26.5-26.5,26.5H40z"/>
		<g>
			<path class="st26" d="M342,384.43c0,13.25-10.75,24-24,24H40c-13.25,0-24-10.75-24-24H342 M342,379.43H16c-2.76,0-5,2.24-5,5
				c0,15.99,13.01,29,29,29h278c15.99,0,29-13.01,29-29C347,381.66,344.76,379.43,342,379.43L342,379.43z M342,389.43L342,389.43
				L342,389.43L342,389.43z"/>
		</g>
	</g>
	<g>
		<path class="st26" d="M331.94,391.43H26.07c-5.56,0-10.06-4.51-10.06-10.06v-13.94h326v13.94
			C342,386.92,337.5,391.43,331.94,391.43z"/>
	</g>
	<g>
		<path class="st30" d="M14.67,380.43c-3.68,0-6.67-2.99-6.67-6.67V107.09c0-3.68,2.99-6.67,6.67-6.67h328.67
			c3.67,0,6.67,2.99,6.67,6.67v266.67c0,3.68-2.99,6.67-6.67,6.67H14.67z"/>
		<path class="st31" d="M343.34,104.43c1.47,0,2.67,1.2,2.67,2.67v266.67c0,1.47-1.2,2.67-2.67,2.67H14.67
			c-1.47,0-2.67-1.2-2.67-2.67V107.09c0-1.47,1.2-2.67,2.67-2.67H343.34 M343.34,96.43H14.67C8.78,96.43,4,101.2,4,107.09v266.67
			c0,5.89,4.78,10.67,10.67,10.67h328.67c5.89,0,10.67-4.77,10.67-10.67V107.09C354,101.2,349.23,96.43,343.34,96.43L343.34,96.43z"
			/>
	</g>
	<g>
		<path class="st31" d="M344.03,164.43H13.98c-2.19,0-3.97-1.78-3.97-3.97V108.4c0-2.19,1.78-3.97,3.97-3.97h330.06
			c2.19,0,3.97,1.78,3.97,3.97v52.06C348,162.65,346.23,164.43,344.03,164.43z"/>
	</g>
	<g>
		<path class="st26" d="M158.29,88.43H41.72C34.7,88.43,29,82.73,29,75.71V34.14c0-7.02,5.69-12.71,12.71-12.71h116.57
			c7.02,0,12.71,5.69,12.71,12.71v41.57C171,82.73,165.31,88.43,158.29,88.43z"/>
	</g>
	<g>
		<path class="st26" d="M316.29,88.43H199.72c-7.02,0-12.71-5.69-12.71-12.71V34.14c0-7.02,5.69-12.71,12.71-12.71h116.57
			c7.02,0,12.71,5.69,12.71,12.71v41.57C329,82.73,323.31,88.43,316.29,88.43z"/>
	</g>
	<g>
		<path class="st30" d="M10.67,152.43c-3.68,0-6.67-2.99-6.67-6.67v-38.67c0-3.68,2.99-6.67,6.67-6.67h336.67
			c3.67,0,6.67,2.99,6.67,6.67v38.67c0,3.68-2.99,6.67-6.67,6.67H10.67z"/>
		<path class="st31" d="M347.34,104.43c1.47,0,2.67,1.2,2.67,2.67v38.67c0,1.47-1.2,2.67-2.67,2.67H10.67
			c-1.47,0-2.67-1.2-2.67-2.67v-38.67c0-1.47,1.2-2.67,2.67-2.67H347.34 M347.34,96.43H10.67C4.78,96.43,0,101.2,0,107.09v38.67
			c0,5.89,4.78,10.67,10.67,10.67h336.67c5.89,0,10.67-4.77,10.67-10.67v-38.67C358,101.2,353.23,96.43,347.34,96.43L347.34,96.43z"
			/>
	</g>
	<g>
		<path class="st30" d="M41.72,78.43c-4.8,0-8.71-3.91-8.71-8.71V28.14c0-4.8,3.91-8.71,8.71-8.71h116.57c4.8,0,8.71,3.91,8.71,8.71
			v41.57c0,4.8-3.91,8.71-8.71,8.71H41.72z"/>
		<path class="st31" d="M158.29,23.43c2.6,0,4.71,2.11,4.71,4.71v41.57c0,2.6-2.11,4.71-4.71,4.71H41.72c-2.6,0-4.71-2.11-4.71-4.71
			V28.14c0-2.6,2.11-4.71,4.71-4.71H158.29 M158.29,15.43H41.72C34.7,15.43,29,21.12,29,28.14v41.57c0,7.02,5.69,12.71,12.71,12.71
			h116.57c7.02,0,12.71-5.69,12.71-12.71V28.14C171,21.12,165.31,15.43,158.29,15.43L158.29,15.43z"/>
	</g>
	<g>
		<path class="st30" d="M199.72,78.43c-4.8,0-8.71-3.91-8.71-8.71V28.14c0-4.8,3.91-8.71,8.71-8.71h116.57
			c4.8,0,8.71,3.91,8.71,8.71v41.57c0,4.8-3.91,8.71-8.71,8.71H199.72z"/>
		<path class="st31" d="M316.29,23.43c2.6,0,4.71,2.11,4.71,4.71v41.57c0,2.6-2.11,4.71-4.71,4.71H199.72
			c-2.6,0-4.71-2.11-4.71-4.71V28.14c0-2.6,2.11-4.71,4.71-4.71H316.29 M316.29,15.43H199.72c-7.02,0-12.71,5.69-12.71,12.71v41.57
			c0,7.02,5.69,12.71,12.71,12.71h116.57c7.02,0,12.71-5.69,12.71-12.71V28.14C329,21.12,323.31,15.43,316.29,15.43L316.29,15.43z"
			/>
	</g>
	<line class="st32" x1="316" y1="28.43" x2="199.05" y2="28.43"/>
	<line class="st32" x1="347" y1="108.43" x2="12" y2="108.43"/>
	<line class="st32" x1="158" y1="28.43" x2="41.05" y2="28.43"/>
</g>
</svg>
