<?xml version="1.0" encoding="UTF-8"?>
<svg id="Layer_2" data-name="Layer 2" xmlns="http://www.w3.org/2000/svg" viewBox="0 0 197.1 254">
  <defs>
    <style>
      .cls-1 {
        stroke: #c1c1c1;
      }

      .cls-1, .cls-2 {
        stroke-linejoin: round;
        stroke-width: 4px;
      }

      .cls-1, .cls-2, .cls-3 {
        stroke-linecap: round;
      }

      .cls-1, .cls-3 {
        fill: none;
      }

      .cls-2 {
        fill: #bec5cc;
        stroke: #45494f;
      }

      .cls-4 {
        fill: #d0d3d6;
      }

      .cls-5 {
        fill: #ebf0f5;
      }

      .cls-6 {
        fill: #c1c1c1;
      }

      .cls-3 {
        stroke: #fff;
        stroke-miterlimit: 10;
        stroke-width: 5px;
      }
    </style>
  </defs>
  <g>
    <path class="cls-5" d="m29,250.7c-1.2,0-2.2-.8-2.4-2l-9.2-42.2-.8-3.8-11.8-54.2c-.7-3.1-1.2-6.3-1.6-9.3,0-.7-.2-1.4-.2-2.1-.1-1-.2-2-.2-3.1-.1-2-.2-4.1-.2-6.4V14.5c.1-6.6,5.5-12,12.1-12h168c6.6,0,12,5.4,12,12v113.6c0,2.1,0,4.1-.2,6,0,.9-.1,2-.2,3.1,0,.7-.1,1.4-.2,2-.3,2.9-.8,5.9-1.4,8.9l-11.6,55.3-9.5,46c-.2,1.2-1.3,2-2.4,2s-140-.8-140-.8Z"/>
    <path class="cls-6" d="m182.7,5c5.2,0,9.5,4.2,9.5,9.5v113.7c0,2,0,3.9-.2,5.9,0,1-.1,2-.2,3,0,.7-.1,1.3-.2,2-.3,2.9-.8,5.8-1.4,8.7l-11.6,55.3-.6,3-8.9,43-140-.8-9.2-42.2-.7-3-.2-.8-11.8-54.2c-.6-3-1.2-6-1.5-9.1,0-.7-.2-1.3-.2-2-.1-1-.2-2-.2-3-.2-2.1-.2-4.2-.2-6.3V14.5c.1-5.2,4.4-9.5,9.6-9.5h168m0-5H14.6C6.6,0,.1,6.5.1,14.5v113.2c-.1,2.4,0,4.6,0,6.6,0,1,.1,2.1.3,3.1,0,.8.1,1.5.2,2.1.4,3.1.9,6.3,1.6,9.5l11.8,54.2.2.8.6,3,9.2,42.2c.5,2.3,2.5,3.9,4.9,3.9l140,.8s0,0,0,0c2.4,0,4.4-1.7,4.9-4l8.9-43,.6-3,11.6-55.3c.6-3,1.1-6.1,1.5-9.1,0-.7.2-1.4.2-2.1.1-1.1.2-2.2.2-3.2.1-2,.2-4.1.2-6.2V14.5c0-8-6.5-14.5-14.5-14.5h0Z"/>
  </g>
  <line class="cls-1" x1="3.6" y1="139" x2="193.6" y2="139"/>
  <path class="cls-2" d="m31.3,188.6l-4.6-26.8c-.4-2.2,1.1-4.2,3.3-4.6h0c2.2-.4,4.2,1.1,4.6,3.3l4.6,26.8c.4,2.2-1.1,4.2-3.3,4.6h0c-2.2.4-4.2-1.1-4.6-3.3Z"/>
  <path class="cls-4" d="m30.6,15.9h136c8,0,14.5,5.9,14.5,13.2v80.9c0,7.3-6.5,13.2-14.5,13.2H30.6c-8,0-14.5-5.9-14.5-13.2V29.1c0-7.3,6.5-13.2,14.5-13.2Z"/>
  <path class="cls-5" d="m35.5,22h126.1c7.4,0,13.4,6,13.4,13.3v81.4c0,7.4-6,13.3-13.4,13.3H35.5c-7.4,0-13.4-6-13.4-13.3V35.3c0-7.4,6-13.3,13.4-13.3Z"/>
  <rect class="cls-2" x="83.1" y="213" width="30" height="7" rx="3.5" ry="3.5"/>
  <polyline class="cls-1" points="19.1 203 19.2 203 178.5 203 181.1 203"/>
  <polygon class="cls-4" points="178.5 203 177.9 206 19.8 206 19.2 203 178.5 203"/>
  <line class="cls-3" x1="173.8" y1="210.6" x2="166.6" y2="244.5"/>
  <line class="cls-3" x1="187.6" y1="143.5" x2="176.6" y2="197.5"/>
  <path class="cls-4" d="m192,134c0,1-.1,2-.2,3H5.5c-.1-1-.2-2-.2-3h186.7Z"/>
  <line class="cls-3" x1="187.6" y1="10.5" x2="187.6" y2="123.5"/>
</svg>