<?xml version="1.0" encoding="utf-8"?>
<!-- Generator: Adobe Adobe Illustrator 24.2.0, SVG Export Plug-In . SVG Version: 6.00 Build 0)  -->
<svg version="1.1" id="レイヤー_1" xmlns="http://www.w3.org/2000/svg" xmlns:xlink="http://www.w3.org/1999/xlink" x="0px"
	 y="0px" viewBox="0 0 221 161" style="enable-background:new 0 0 221 161;" xml:space="preserve">
<style type="text/css">
	.st0{fill:#856254;stroke:#FFFFFF;stroke-width:9;stroke-miterlimit:10;}
	.st1{fill:#90D15A;stroke:#6F9E5D;stroke-width:2;stroke-miterlimit:10;}
	.st2{fill:#A5DB91;stroke:#8CBA7B;stroke-width:2;stroke-miterlimit:10;}
	.st3{fill:#85B370;stroke:#6D8A60;stroke-width:2;stroke-miterlimit:10;}
	.st4{fill:#FFFFFF;stroke:#FFFFFF;stroke-width:2;stroke-miterlimit:10;}
	.st5{fill:#4EA6CF;stroke:#FFFFFF;stroke-width:4;stroke-miterlimit:10;}
	.st6{fill:#4A4846;stroke:#FFFFFF;stroke-width:2;stroke-miterlimit:10;}
	.st7{fill:#756045;stroke:#FFFFFF;stroke-width:9;stroke-miterlimit:10;}
	.st8{fill:#4D9967;stroke:#467054;stroke-width:2;stroke-miterlimit:10;}
	.st9{fill:#67AB5C;stroke:#4D9967;stroke-width:2;stroke-linecap:round;stroke-linejoin:round;stroke-miterlimit:10;}
	.st10{fill:#4A7344;stroke:#3B6B4C;stroke-width:2;stroke-miterlimit:10;}
	.st11{fill:#4A7344;stroke:#457045;stroke-width:2;stroke-miterlimit:10;}
	.st12{fill:#67AB5C;}
	.st13{fill:#806349;stroke:#453E36;stroke-width:4;stroke-linejoin:round;stroke-miterlimit:10;}
	.st14{fill:#66513F;stroke:#453E36;stroke-width:4;stroke-linejoin:round;stroke-miterlimit:10;}
	.st15{fill:#AD8050;stroke:#6E6651;stroke-width:4;stroke-miterlimit:10;}
	.st16{fill:#EBD698;stroke:#B09E6D;stroke-width:4;stroke-miterlimit:10;}
	.st17{fill:#7D7766;stroke:#DEC478;stroke-width:8;stroke-miterlimit:10;}
	.st18{fill:#F2D16D;stroke:#B09E6D;stroke-width:8;stroke-miterlimit:10;}
	.st19{fill:#8F6840;}
	.st20{fill:#BA8856;stroke:#705236;stroke-width:4;stroke-linecap:round;stroke-linejoin:round;stroke-miterlimit:10;}
	.st21{fill:#BA8856;stroke:#705236;stroke-width:4;stroke-linejoin:round;stroke-miterlimit:10;}
	.st22{fill:#75726E;stroke:#75726E;stroke-width:4;stroke-miterlimit:10;}
	.st23{fill:#5E5E5D;stroke:#5E5C59;stroke-width:5;stroke-miterlimit:10;}
	.st24{fill:#ABA198;}
	.st25{fill:#BFBEBD;stroke:#75726E;stroke-width:4;stroke-miterlimit:10;}
	.st26{fill:none;stroke:#454443;stroke-width:4;stroke-linejoin:round;stroke-miterlimit:10;}
	.st27{fill:#BFBEBD;}
	.st28{fill:#D9D9D9;}
	.st29{fill:#BA8856;}
	.st30{fill:#9C7752;}
	.st31{fill:#ED7472;}
	.st32{fill:#CC7270;}
	.st33{fill:#50BED4;}
	.st34{fill:#51ABBD;}
	.st35{fill:#3A7BD6;}
	.st36{fill:#4370B0;}
	.st37{fill:#FCBB51;}
	.st38{fill:none;stroke:#6E5842;stroke-width:4;stroke-linecap:round;stroke-linejoin:round;stroke-miterlimit:10;}
	.st39{fill:#A3D9D8;stroke:#574131;stroke-width:6;stroke-linejoin:round;stroke-miterlimit:10;}
	.st40{fill:#A3D9D8;}
	.st41{fill:#D3EDED;}
	.st42{fill:#574131;}
	.st43{fill:#7D5B42;stroke:#302821;stroke-width:4;stroke-miterlimit:10;}
	.st44{fill:#574131;stroke:#FFFFFF;stroke-width:2;stroke-miterlimit:10;}
	.st45{fill:#705744;}
	.st46{fill:#426C7D;stroke:#39525C;stroke-width:2;stroke-linejoin:round;stroke-miterlimit:10;}
	.st47{fill:#97C0CF;}
	.st48{fill:#9CDBD6;}
	.st49{fill:#C9F2EE;}
	.st50{fill:#C9F2EE;stroke:#E3AB74;stroke-miterlimit:10;}
	.st51{fill:none;stroke:#8A7B6B;stroke-width:4;stroke-linecap:round;stroke-linejoin:round;stroke-miterlimit:10;}
	.st52{fill:#FFFFFF;}
	.st53{fill:#666666;}
	.st54{fill:none;stroke:#575757;stroke-width:4;stroke-linecap:round;stroke-linejoin:round;stroke-miterlimit:10;}
	.st55{fill:none;stroke:#303030;stroke-linecap:round;stroke-miterlimit:10;}
	.st56{fill:none;stroke:#303030;stroke-linecap:round;stroke-linejoin:round;stroke-miterlimit:10;}
	.st57{fill:none;stroke:#C28282;stroke-linecap:round;stroke-linejoin:round;stroke-miterlimit:10;}
	.st58{fill:#5B5F70;stroke:#343640;stroke-width:4;stroke-linejoin:round;stroke-miterlimit:10;}
	.st59{fill:#5B5F70;stroke:#3C3E48;stroke-width:4;stroke-linecap:round;stroke-linejoin:round;stroke-miterlimit:10;}
	.st60{fill:#A8ABBA;}
	.st61{fill:#D5D8E3;}
	.st62{fill:#5B5F70;stroke:#3C3E48;stroke-width:2;stroke-miterlimit:10;}
	.st63{fill:#DEBF4E;}
	.st64{fill:#6BBF92;}
	.st65{fill:#BA7082;}
	.st66{fill:#95BDC2;}
	.st67{fill:#CFC4AE;stroke:#3C3E48;stroke-width:4;stroke-linejoin:round;stroke-miterlimit:10;}
	.st68{fill:#3C3E48;}
	.st69{fill:#ADAFBA;stroke:#3C3E48;stroke-width:4;stroke-linejoin:round;stroke-miterlimit:10;}
	.st70{fill:#E8B4A2;stroke:#C4826C;stroke-width:4;stroke-miterlimit:10;}
	.st71{fill:#5E5B4F;}
	.st72{fill:#F5EFD7;stroke:#B0AA90;stroke-width:4;stroke-miterlimit:10;}
	.st73{fill:#E8B4A2;stroke:#C5846F;stroke-width:4;stroke-miterlimit:10;}
	.st74{fill:none;stroke:#88BAB6;stroke-width:4;stroke-miterlimit:10;}
	.st75{fill:#FFFFFF;stroke:#734F4D;stroke-width:4;stroke-miterlimit:10;}
	.st76{fill:#B35F5B;}
	.st77{fill:#B35F5B;stroke:#995A57;stroke-width:4;stroke-linecap:round;stroke-miterlimit:10;}
	.st78{fill:#A3783C;stroke:#5E4F39;stroke-width:4;stroke-miterlimit:10;}
	.st79{fill:#CC7772;}
	.st80{fill:#8F6A42;stroke:#66513A;stroke-width:4;stroke-miterlimit:10;}
	.st81{fill:#695732;stroke:#C49133;stroke-width:2;stroke-linecap:round;stroke-linejoin:round;stroke-miterlimit:10;}
	.st82{fill:#5EAD8F;stroke:#40856A;stroke-width:2;stroke-linecap:round;stroke-linejoin:round;stroke-miterlimit:10;}
	.st83{fill:#C2F2FF;stroke:#FFFFFF;stroke-width:4;stroke-miterlimit:10;}
	.st84{fill:none;stroke:#E6F9FF;stroke-width:4;stroke-linecap:round;stroke-linejoin:round;stroke-miterlimit:10;}
	.st85{fill:#E6F9FF;}
	.st86{fill:#B3CC93;stroke:#93B06D;stroke-width:4;stroke-miterlimit:10;}
	.st87{fill:#F5E5B0;stroke:#E0C97E;stroke-width:2;stroke-miterlimit:10;}
	.st88{fill:url(#SVGID_1_);stroke:#3C3E48;stroke-width:4;stroke-linejoin:round;stroke-miterlimit:10;}
	.st89{fill:url(#SVGID_2_);stroke:#3C3E48;stroke-width:4;stroke-linejoin:round;stroke-miterlimit:10;}
</style>
<g>
	<g>
		<g>
			<path class="st75" d="M219,34.06v92.87c0,17.71-14.01,32.06-31.31,32.06H33.31c-2.68,0-5.27-0.34-7.75-0.98
				C12.01,154.48,2,141.91,2,126.94V34.06c0-5.62,1.41-10.9,3.91-15.5C11.23,8.69,21.51,2,33.31,2h154.38
				C204.99,2,219,16.36,219,34.06z"/>
			<path class="st76" d="M211,38.5v84c0,16.02-12.98,29-29,29H39c-2.48,0-4.88-0.31-7.18-0.89C19.27,147.41,10,136.04,10,122.5v-84
				c0-5.08,1.31-9.86,3.62-14.02C18.55,15.55,28.07,9.5,39,9.5h143C198.02,9.5,211,22.49,211,38.5z"/>
			<path class="st77" d="M45,98.48c-3.15,13.97-11.84,26.61-23.76,34.55c-0.24,0.16-0.55,0.33-0.82,0.2s-0.12-0.68,0.15-0.54"/>
			<path class="st77" d="M173.18,32.46c4.39-6.99,11.72-12.18,20.04-14.17c0.17-0.04,0.38-0.07,0.51,0.05
				c0.13,0.12-0.06,0.39-0.18,0.27"/>
			<path class="st77" d="M48,32.46c-4.39-6.99-11.72-12.18-20.04-14.17c-0.17-0.04-0.38-0.07-0.51,0.05
				c-0.13,0.12,0.06,0.39,0.18,0.27"/>
			<path class="st77" d="M176,98.48c3.15,13.97,11.84,26.61,23.76,34.55c0.24,0.16,0.55,0.33,0.82,0.2
				c0.26-0.13,0.12-0.68-0.15-0.54"/>
			<path class="st78" d="M45,93.48v-60c0-2.76,2.24-5,5-5h121c2.76,0,5,2.24,5,5v60c0,2.76-2.24,5-5,5H50
				C47.24,98.48,45,96.25,45,93.48z"/>
			<circle class="st79" cx="59.89" cy="120.18" r="8.11"/>
			<path class="st79" d="M48.82,149.5h-9c-2.48,0-4.88-0.31-7.18-0.89c0.44-4.06,3.89-7.22,8.07-7.22
				C45.19,141.39,48.82,145.02,48.82,149.5z"/>
			<circle class="st79" cx="104.89" cy="136.4" r="8.11"/>
			<circle class="st79" cx="143.89" cy="112.06" r="8.11"/>
			<path class="st79" d="M85.74,100.46h16.07c-0.55,3.94-3.94,6.98-8.04,6.98S86.29,104.4,85.74,100.46z"/>
			<path class="st79" d="M25.67,106.6c0,4.48-3.63,8.11-8.11,8.11c-2.07,0-3.96-0.78-5.39-2.04v-12.14
				c1.43-1.27,3.32-2.05,5.39-2.05C22.04,98.48,25.67,102.12,25.67,106.6z"/>
			<circle class="st79" cx="30.58" cy="68.06" r="8.11"/>
			<path class="st79" d="M22.46,33.34c0,4.48-3.64,8.12-8.12,8.12c-0.75,0-1.48-0.1-2.17-0.3v-1.78c0-5.08,1.31-9.86,3.62-14.02
				C19.58,26.04,22.46,29.35,22.46,33.34z"/>
			<circle class="st79" cx="181.3" cy="136.4" r="8.11"/>
			<circle class="st79" cx="191.59" cy="93.95" r="8.11"/>
			<path class="st79" d="M208.82,49.34v16.22c-4.48,0-8.11-3.63-8.11-8.11C200.71,52.97,204.34,49.34,208.82,49.34z"/>
			<circle class="st79" cx="185.71" cy="32.46" r="8.11"/>
			<ellipse class="st79" cx="141.71" cy="19.36" rx="8.11" ry="4.99"/>
			<path class="st79" d="M106.61,12.07c0,2.76-3.63,5-8.11,5c-4.48,0-8.11-2.24-8.11-5c0-0.14,0.01-0.27,0.03-0.41h16.16
				C106.6,11.8,106.61,11.93,106.61,12.07z"/>
			<path class="st79" d="M67.48,11.67c-1.15,1.89-4.11,3.24-7.59,3.24c-3.48,0-6.45-1.35-7.6-3.24H67.48z"/>
		</g>
	</g>
</g>
</svg>
