<?xml version="1.0" encoding="utf-8"?>
<!-- Generator: Adobe Adobe Illustrator 24.2.0, SVG Export Plug-In . SVG Version: 6.00 Build 0)  -->
<svg version="1.1" id="レイヤー_1" xmlns="http://www.w3.org/2000/svg" xmlns:xlink="http://www.w3.org/1999/xlink" x="0px"
	 y="0px" viewBox="0 0 156.03 117.89" style="enable-background:new 0 0 156.03 117.89;" xml:space="preserve">
<style type="text/css">
	.st0{fill:#856254;stroke:#FFFFFF;stroke-width:9;stroke-miterlimit:10;}
	.st1{fill:#90D15A;stroke:#6F9E5D;stroke-width:2;stroke-miterlimit:10;}
	.st2{fill:#A5DB91;stroke:#8CBA7B;stroke-width:2;stroke-miterlimit:10;}
	.st3{fill:#85B370;stroke:#6D8A60;stroke-width:2;stroke-miterlimit:10;}
	.st4{fill:#FFFFFF;stroke:#FFFFFF;stroke-width:2;stroke-miterlimit:10;}
	.st5{fill:#4EA6CF;stroke:#FFFFFF;stroke-width:4;stroke-miterlimit:10;}
	.st6{fill:#4A4846;stroke:#FFFFFF;stroke-width:2;stroke-miterlimit:10;}
	.st7{fill:#756045;stroke:#FFFFFF;stroke-width:9;stroke-miterlimit:10;}
	.st8{fill:#4D9967;stroke:#467054;stroke-width:2;stroke-miterlimit:10;}
	.st9{fill:#67AB5C;stroke:#4D9967;stroke-width:2;stroke-linecap:round;stroke-linejoin:round;stroke-miterlimit:10;}
	.st10{fill:#4A7344;stroke:#3B6B4C;stroke-width:2;stroke-miterlimit:10;}
	.st11{fill:#4A7344;stroke:#457045;stroke-width:2;stroke-miterlimit:10;}
	.st12{fill:#67AB5C;}
	.st13{fill:#806349;stroke:#453E36;stroke-width:4;stroke-linejoin:round;stroke-miterlimit:10;}
	.st14{fill:#66513F;stroke:#453E36;stroke-width:4;stroke-linejoin:round;stroke-miterlimit:10;}
	.st15{fill:#AD8050;stroke:#6E6651;stroke-width:4;stroke-miterlimit:10;}
	.st16{fill:#EBD698;stroke:#B09E6D;stroke-width:4;stroke-miterlimit:10;}
	.st17{fill:#7D7766;stroke:#DEC478;stroke-width:8;stroke-miterlimit:10;}
	.st18{fill:#F2D16D;stroke:#B09E6D;stroke-width:8;stroke-miterlimit:10;}
	.st19{fill:#8F6840;}
	.st20{fill:#BA8856;stroke:#705236;stroke-width:4;stroke-linecap:round;stroke-linejoin:round;stroke-miterlimit:10;}
	.st21{fill:#BA8856;stroke:#705236;stroke-width:4;stroke-linejoin:round;stroke-miterlimit:10;}
	.st22{fill:#75726E;stroke:#75726E;stroke-width:4;stroke-miterlimit:10;}
	.st23{fill:#5E5E5D;stroke:#5E5C59;stroke-width:5;stroke-miterlimit:10;}
	.st24{fill:#ABA198;}
	.st25{fill:#BFBEBD;stroke:#75726E;stroke-width:4;stroke-miterlimit:10;}
	.st26{fill:none;stroke:#454443;stroke-width:4;stroke-linejoin:round;stroke-miterlimit:10;}
	.st27{fill:#BFBEBD;}
	.st28{fill:#D9D9D9;}
	.st29{fill:#BA8856;}
	.st30{fill:#9C7752;}
	.st31{fill:#ED7472;}
	.st32{fill:#CC7270;}
	.st33{fill:#50BED4;}
	.st34{fill:#51ABBD;}
	.st35{fill:#3A7BD6;}
	.st36{fill:#4370B0;}
	.st37{fill:#FCBB51;}
	.st38{fill:none;stroke:#6E5842;stroke-width:4;stroke-linecap:round;stroke-linejoin:round;stroke-miterlimit:10;}
	.st39{fill:#A3D9D8;stroke:#574131;stroke-width:6;stroke-linejoin:round;stroke-miterlimit:10;}
	.st40{fill:#A3D9D8;}
	.st41{fill:#D3EDED;}
	.st42{fill:#574131;}
	.st43{fill:#7D5B42;stroke:#302821;stroke-width:4;stroke-miterlimit:10;}
	.st44{fill:#574131;stroke:#FFFFFF;stroke-width:2;stroke-miterlimit:10;}
	.st45{fill:#705744;}
	.st46{fill:#426C7D;stroke:#39525C;stroke-width:2;stroke-linejoin:round;stroke-miterlimit:10;}
	.st47{fill:#97C0CF;}
	.st48{fill:#9CDBD6;}
	.st49{fill:#C9F2EE;}
	.st50{fill:#C9F2EE;stroke:#E3AB74;stroke-miterlimit:10;}
	.st51{fill:none;stroke:#8A7B6B;stroke-width:4;stroke-linecap:round;stroke-linejoin:round;stroke-miterlimit:10;}
	.st52{fill:#FFFFFF;}
	.st53{fill:#666666;}
	.st54{fill:none;stroke:#575757;stroke-width:4;stroke-linecap:round;stroke-linejoin:round;stroke-miterlimit:10;}
	.st55{fill:none;stroke:#303030;stroke-linecap:round;stroke-miterlimit:10;}
	.st56{fill:none;stroke:#303030;stroke-linecap:round;stroke-linejoin:round;stroke-miterlimit:10;}
	.st57{fill:none;stroke:#C28282;stroke-linecap:round;stroke-linejoin:round;stroke-miterlimit:10;}
	.st58{fill:#5B5F70;stroke:#343640;stroke-width:4;stroke-linejoin:round;stroke-miterlimit:10;}
	.st59{fill:#5B5F70;stroke:#3C3E48;stroke-width:4;stroke-linecap:round;stroke-linejoin:round;stroke-miterlimit:10;}
	.st60{fill:#A8ABBA;}
	.st61{fill:#D5D8E3;}
	.st62{fill:#5B5F70;stroke:#3C3E48;stroke-width:2;stroke-miterlimit:10;}
	.st63{fill:#DEBF4E;}
	.st64{fill:#6BBF92;}
	.st65{fill:#BA7082;}
	.st66{fill:#95BDC2;}
	.st67{fill:#CFC4AE;stroke:#3C3E48;stroke-width:4;stroke-linejoin:round;stroke-miterlimit:10;}
	.st68{fill:#3C3E48;}
	.st69{fill:#ADAFBA;stroke:#3C3E48;stroke-width:4;stroke-linejoin:round;stroke-miterlimit:10;}
	.st70{fill:#E8B4A2;stroke:#C4826C;stroke-width:4;stroke-miterlimit:10;}
	.st71{fill:#5E5B4F;}
	.st72{fill:#F5EFD7;stroke:#B0AA90;stroke-width:4;stroke-miterlimit:10;}
	.st73{fill:#E8B4A2;stroke:#C5846F;stroke-width:4;stroke-miterlimit:10;}
	.st74{fill:none;stroke:#88BAB6;stroke-width:4;stroke-miterlimit:10;}
	.st75{fill:#FFFFFF;stroke:#734F4D;stroke-width:4;stroke-miterlimit:10;}
	.st76{fill:#B35F5B;}
	.st77{fill:#B35F5B;stroke:#995A57;stroke-width:4;stroke-linecap:round;stroke-miterlimit:10;}
	.st78{fill:#A3783C;stroke:#5E4F39;stroke-width:4;stroke-miterlimit:10;}
	.st79{fill:#CC7772;}
	.st80{fill:#8F6A42;stroke:#66513A;stroke-width:4;stroke-miterlimit:10;}
	.st81{fill:#695732;stroke:#C49133;stroke-width:2;stroke-linecap:round;stroke-linejoin:round;stroke-miterlimit:10;}
	.st82{fill:#5EAD8F;stroke:#40856A;stroke-width:2;stroke-linecap:round;stroke-linejoin:round;stroke-miterlimit:10;}
	.st83{fill:#C2F2FF;stroke:#FFFFFF;stroke-width:4;stroke-miterlimit:10;}
	.st84{fill:none;stroke:#E6F9FF;stroke-width:4;stroke-linecap:round;stroke-linejoin:round;stroke-miterlimit:10;}
	.st85{fill:#E6F9FF;}
	.st86{fill:#B3CC93;stroke:#93B06D;stroke-width:4;stroke-miterlimit:10;}
	.st87{fill:#F5E5B0;stroke:#E0C97E;stroke-width:2;stroke-miterlimit:10;}
	.st88{fill:url(#SVGID_1_);stroke:#3C3E48;stroke-width:4;stroke-linejoin:round;stroke-miterlimit:10;}
	.st89{fill:url(#SVGID_2_);stroke:#3C3E48;stroke-width:4;stroke-linejoin:round;stroke-miterlimit:10;}
</style>
<g>
	<g>
		<g>
			<path class="st48" d="M3.03,103.89v-90c0-6.63,5.37-12,12-12h125c6.63,0,12,5.37,12,12v90c0,6.63-5.37,12-12,12h-125
				C8.4,115.89,3.03,110.51,3.03,103.89z"/>
			<path class="st49" d="M2,101.89v-86c0-7.73,6.27-14,14-14h3c7.73,0,14,6.27,14,14v86c0,7.73-6.27,14-14,14h-3
				C8.27,115.89,2,109.62,2,101.89z"/>
			<path class="st49" d="M123.03,101.89v-86c0-7.73,6.27-14,14-14h3c7.73,0,14,6.27,14,14v86c0,7.73-6.27,14-14,14h-3
				C129.3,115.89,123.03,109.62,123.03,101.89z"/>
			<path class="st49" d="M134.03,32.44h-113c-7.73,0-14-6.27-14-14v-3c0-7.73,6.27-14,14-14h113c7.73,0,14,6.27,14,14v3
				C148.03,26.17,141.76,32.44,134.03,32.44z"/>
		</g>
	</g>
</g>
<g>
	<g>
		<g>
			<path class="st51" d="M70.4,78.98c1.55,0.11,3.46-0.03,4.11-1.43c0.62-1.34-0.45-2.9-1.73-3.64c-1.28-0.74-2.79-1.03-3.99-1.89
				c1.04-0.17,1.52-1.39,1.7-2.43c0.57-3.38-0.24-7.34-3.12-9.2c-2.47-1.59-5.67-1.23-8.57-0.8"/>
			<path class="st52" d="M85.49,35.56c-1.15,3.96-2.62,8.21-6.09,10.45c-1.51,0.98-3.41,1.58-4.31,3.14
				c-0.85,1.47-0.52,3.31-0.16,4.97c0.33,1.57,0.67,3.13,1,4.7c0.44,2.08,0.88,4.28,0.17,6.28c-0.63,1.78-2.07,3.12-3.21,4.62
				c-1.14,1.5-2.04,3.48-1.35,5.24c0.26,0.67,0.75,1.27,0.89,1.98c0.07,0.34,0.05,0.71,0.2,1.03c0.22,0.5,0.77,0.77,1.29,0.95
				c1.77,0.6,3.67,0.61,5.54,0.61c4.31,0,8.67,0,12.87-0.98c4.65-1.09,9.02-3.39,12.55-6.61c0.82-0.75,1.61-1.56,2.12-2.54
				c0.79-1.49,0.88-3.27,0.6-4.93c-0.29-1.66-0.93-3.24-1.57-4.8c-1.3-3.16-2.59-6.32-3.89-9.48c-0.37-0.89-0.74-1.79-1.27-2.6
				c-1.53-2.33-4.22-3.63-6-5.78c-1-1.21-1.68-2.64-2.61-3.9c-0.93-1.26-2.22-2.39-3.78-2.55c-1.25-0.13-2.48,0.39-3.59,0.98"/>
			<path class="st53" d="M101.06,48.29c-6.15-1.34-11.28-6.52-12.56-12.68c1.05-0.05,2.1-0.09,3.15-0.14
				c0.4-0.02,0.81-0.04,1.15-0.24c0.26-0.15,0.46-0.39,0.64-0.63c1.57-2.09,2.58-4.76,4.85-6.04c-0.39,4.03,0.03,8.13,1.22,12
				c0.84,2.72,2.08,5.5,1.55,8.3"/>
			<path class="st53" d="M85.28,35.67c-0.87-0.08-1.4,0.18-2.27,0.1c-1.49-2.2-3.06-4.35-4.7-6.44c-0.7,5.48-1.94,10.9-3.63,15.89
				c-2.43,2.89-6.32,4.08-10.06,4.65c-3.73,0.57-7.59,0.67-11.13,1.98c-1.58-5.62-2.22-11.49-1.89-17.32
				c0.09-1.68,0.26-3.41-0.3-4.99c-0.46-1.3-1.39-2.39-2.43-3.3c-4.16-3.63-10.89-5.24-15.89-2.9c-1.49,0.7-4.08,1.38-3.85,3.02
				c0.5,3.48,3.71,2.82,5.5,2.2s4.14-0.98,6.03-1.13c1.76-0.13,4.28,1.62,4.67,2.07c1.5,1.76,1.92,2.96,2.47,4.63
				c1.27,3.84,0.29,7.7-0.09,11.73c-0.31,3.24,0.43,7.21,2.14,9.75c-2.64,3.06-3.65,6.99-2.67,10.38c0.8,2.77,1.91,5.98,3.98,7.97
				c1.33,1.28,3.25,1.7,4.84,2.65c4.4,2.64,9.85,2.56,14.97,2.41c1.56-0.05,3.56-0.45,3.82-1.98c0.27-1.54-1.57-2.95-1.12-4.45
				c0.17-0.56,0.63-0.98,1.05-1.38c2.25-2.13,4.1-4.74,5.03-7.69c0.93-2.95,0.87-6.27-0.47-9.06c-0.38-0.79-0.86-1.55-0.97-2.42
				s-0.93-1.89-0.08-2.08c0.4-0.09,1.18-0.29,2.11-0.76c1.62-0.8,2.06-1.25,2.75-2.21c0.9-1.26,1.2-2.11,2.2-5.01
				c0.89-2.59,1.01-3.13,1.44-6.36c-0.37,0.02-0.8-0.35-1.17-0.33"/>
			<g>
				<g>
					<path class="st54" d="M107.97,65.03c-0.25-1.81-1.15-3.46-1.97-5.09c-4.86-9.71-7.94-20.62-7.7-31.48
						c-2.36,2.07-3.65,4.33-4.46,6.3c-0.31,0.76-1.59,0.34-2.41,0.32l-9.13,0.58c-1.82-2.08-2.85-4.51-4.21-6.81
						c-0.06-0.11-0.25-0.01-0.25,0.11c0,5.23-2.02,10.24-3.07,15.37l0,0c-1.5,3.43-5.73,4.54-9.41,5.22
						c-3.68,0.68-7.55,0.69-10.96,2.22c-0.35,0.16-0.68,0.35-1.01,0.53c-1.77-4.24-2.52-8.9-2.12-13.47
						c0.21-2.45,0.74-4.94,0.25-7.35c-0.65-3.27-3.14-5.97-6.09-7.51c-4.45-2.32-10.09-2.19-14.43,0.32
						c-0.83,0.48-1.67,1.13-1.85,2.06c-0.33,1.64,1.61,2.93,3.27,2.84c1.67-0.09,3.17-0.99,4.78-1.41c2.68-0.69,5.68,0.09,7.69,1.99
						c2.61,2.48,3.31,6.37,3.24,9.97c-0.07,3.6-0.76,7.21-0.33,10.78c0.21,1.76,0.78,3.56,1.71,5.08c-1.47,1.84-2.48,4.04-2.82,6.36
						c-0.64,4.41,1.12,9.09,4.5,11.99c3.38,2.89,7.95,3.9,12.35,4.53c5.98,0.85,12.03,1.18,18.07,0.99
						c6.25-0.2,12.7,0.27,19.71-4.16C105.29,73.18,108.58,69.38,107.97,65.03z"/>
				</g>
			</g>
			<path class="st55" d="M83.03,46.08c1.08,1.87,2.9,1.66,3.86,0.87c0.19-0.16,0.4-0.35,0.64-0.32c0.17,0.02,0.3,0.16,0.43,0.28
				c0.59,0.53,1.44,0.76,2.23,0.61s1.48-0.7,1.82-1.42"/>
			<path class="st56" d="M87.53,46.34c-0.04-0.53-0.04-1.06,0-1.59"/>
			<path class="st57" d="M88.07,43.95c-0.19,0.2-0.43,0.42-0.71,0.38c-0.23-0.04-0.4-0.25-0.62-0.32"/>
			<path class="st54" d="M65.96,60.01c2.08-0.49,3.99,1.48,4.63,3.52c0.93,2.92,0.19,6.32-1.87,8.59c1.36,0.13,2.74,0.28,3.97,0.87
				s2.3,1.67,2.5,3.02c0.2,1.35-0.72,2.87-2.08,3.01"/>
			<path class="st54" d="M98.34,73.52c0.08,1.14,0.03,2.29-0.15,3.42"/>
			<path class="st54" d="M90.77,74.66c0.33,1.15,0.54,2.33,0.62,3.52"/>
			<path class="st54" d="M82.58,74.78c0.42,1.43,0.84,2.86,1.26,4.29"/>
			<path d="M81.73,43.19c-0.34-0.14-0.4-0.08-0.58-0.36c-0.05-0.08-0.07-0.13-0.12-0.21c-0.07-0.11-0.07-0.24-0.06-0.37
				c0.01-0.42,0.04-0.88,0.31-1.2c0.26-0.31,0.72-0.41,1.1-0.3c0.39,0.12,0.69,0.44,0.84,0.81c0.17,0.43,0.13,0.96-0.17,1.33
				c-0.3,0.36-0.51,0.36-0.96,0.36"/>
			<path d="M93.81,43.42c-0.34-0.14-0.4-0.08-0.58-0.36c-0.05-0.08-0.07-0.13-0.12-0.21c-0.07-0.11-0.07-0.24-0.06-0.37
				c0.01-0.42,0.04-0.88,0.31-1.2c0.26-0.31,0.72-0.41,1.1-0.3c0.39,0.12,0.69,0.44,0.84,0.81c0.17,0.43,0.13,0.96-0.17,1.33
				s-0.51,0.36-0.96,0.36"/>
		</g>
	</g>
</g>
<g>
	<g>
		<path class="st74" d="M140.03,1.89h-2.53c-1.11-0.28-2.27-0.45-3.47-0.45h-113c-1.2,0-2.36,0.17-3.47,0.45H16h-0.97
			c-3.97,0-7.48,1.94-9.66,4.91C3.27,9.24,2,12.41,2,15.89v86c0,3.47,1.27,6.65,3.37,9.09c2.18,2.97,5.69,4.91,9.66,4.91H16h3
			h118.03h3c7.73,0,14-6.27,14-14v-86C154.03,8.16,147.76,1.89,140.03,1.89z"/>
	</g>
</g>
</svg>
