<?xml version="1.0" encoding="utf-8"?>
<!-- Generator: Adobe Adobe Illustrator 24.2.0, SVG Export Plug-In . SVG Version: 6.00 Build 0)  -->
<svg version="1.1" id="レイヤー_1" xmlns="http://www.w3.org/2000/svg" xmlns:xlink="http://www.w3.org/1999/xlink" x="0px"
	 y="0px" viewBox="0 0 162.94 168.73" style="enable-background:new 0 0 162.94 168.73;" xml:space="preserve">
<style type="text/css">
	.st0{fill:#856254;stroke:#FFFFFF;stroke-width:9;stroke-miterlimit:10;}
	.st1{fill:#90D15A;stroke:#6F9E5D;stroke-width:2;stroke-miterlimit:10;}
	.st2{fill:#A5DB91;stroke:#8CBA7B;stroke-width:2;stroke-miterlimit:10;}
	.st3{fill:#85B370;stroke:#6D8A60;stroke-width:2;stroke-miterlimit:10;}
	.st4{fill:#FFFFFF;stroke:#FFFFFF;stroke-width:2;stroke-miterlimit:10;}
	.st5{fill:#4EA6CF;stroke:#FFFFFF;stroke-width:4;stroke-miterlimit:10;}
	.st6{fill:#4A4846;stroke:#FFFFFF;stroke-width:2;stroke-miterlimit:10;}
	.st7{fill:#756045;stroke:#FFFFFF;stroke-width:9;stroke-miterlimit:10;}
	.st8{fill:#4D9967;stroke:#467054;stroke-width:2;stroke-miterlimit:10;}
	.st9{fill:#67AB5C;stroke:#4D9967;stroke-width:2;stroke-linecap:round;stroke-linejoin:round;stroke-miterlimit:10;}
	.st10{fill:#4A7344;stroke:#3B6B4C;stroke-width:2;stroke-miterlimit:10;}
	.st11{fill:#4A7344;stroke:#457045;stroke-width:2;stroke-miterlimit:10;}
	.st12{fill:#67AB5C;}
	.st13{fill:#806349;stroke:#453E36;stroke-width:4;stroke-linejoin:round;stroke-miterlimit:10;}
	.st14{fill:#66513F;stroke:#453E36;stroke-width:4;stroke-linejoin:round;stroke-miterlimit:10;}
	.st15{fill:#AD8050;stroke:#6E6651;stroke-width:4;stroke-miterlimit:10;}
	.st16{fill:#EBD698;stroke:#B09E6D;stroke-width:4;stroke-miterlimit:10;}
	.st17{fill:#7D7766;stroke:#DEC478;stroke-width:8;stroke-miterlimit:10;}
	.st18{fill:#F2D16D;stroke:#B09E6D;stroke-width:8;stroke-miterlimit:10;}
	.st19{fill:#8F6840;}
	.st20{fill:#BA8856;stroke:#705236;stroke-width:4;stroke-linecap:round;stroke-linejoin:round;stroke-miterlimit:10;}
	.st21{fill:#BA8856;stroke:#705236;stroke-width:4;stroke-linejoin:round;stroke-miterlimit:10;}
	.st22{fill:#75726E;stroke:#75726E;stroke-width:4;stroke-miterlimit:10;}
	.st23{fill:#5E5E5D;stroke:#5E5C59;stroke-width:5;stroke-miterlimit:10;}
	.st24{fill:#ABA198;}
	.st25{fill:#BFBEBD;stroke:#75726E;stroke-width:4;stroke-miterlimit:10;}
	.st26{fill:none;stroke:#454443;stroke-width:4;stroke-linejoin:round;stroke-miterlimit:10;}
	.st27{fill:#BFBEBD;}
	.st28{fill:#D9D9D9;}
	.st29{fill:#BA8856;}
	.st30{fill:#9C7752;}
	.st31{fill:#ED7472;}
	.st32{fill:#CC7270;}
	.st33{fill:#50BED4;}
	.st34{fill:#51ABBD;}
	.st35{fill:#3A7BD6;}
	.st36{fill:#4370B0;}
	.st37{fill:#FCBB51;}
	.st38{fill:none;stroke:#6E5842;stroke-width:4;stroke-linecap:round;stroke-linejoin:round;stroke-miterlimit:10;}
	.st39{fill:#A3D9D8;stroke:#574131;stroke-width:6;stroke-linejoin:round;stroke-miterlimit:10;}
	.st40{fill:#A3D9D8;}
	.st41{fill:#D3EDED;}
	.st42{fill:#574131;}
	.st43{fill:#7D5B42;stroke:#302821;stroke-width:4;stroke-miterlimit:10;}
	.st44{fill:#574131;stroke:#FFFFFF;stroke-width:2;stroke-miterlimit:10;}
	.st45{fill:#705744;}
	.st46{fill:#426C7D;stroke:#39525C;stroke-width:2;stroke-linejoin:round;stroke-miterlimit:10;}
	.st47{fill:#97C0CF;}
	.st48{fill:#9CDBD6;}
	.st49{fill:#C9F2EE;}
	.st50{fill:#C9F2EE;stroke:#E3AB74;stroke-miterlimit:10;}
	.st51{fill:none;stroke:#8A7B6B;stroke-width:4;stroke-linecap:round;stroke-linejoin:round;stroke-miterlimit:10;}
	.st52{fill:#FFFFFF;}
	.st53{fill:#666666;}
	.st54{fill:none;stroke:#575757;stroke-width:4;stroke-linecap:round;stroke-linejoin:round;stroke-miterlimit:10;}
	.st55{fill:none;stroke:#303030;stroke-linecap:round;stroke-miterlimit:10;}
	.st56{fill:none;stroke:#303030;stroke-linecap:round;stroke-linejoin:round;stroke-miterlimit:10;}
	.st57{fill:none;stroke:#C28282;stroke-linecap:round;stroke-linejoin:round;stroke-miterlimit:10;}
	.st58{fill:#5B5F70;stroke:#343640;stroke-width:4;stroke-linejoin:round;stroke-miterlimit:10;}
	.st59{fill:#5B5F70;stroke:#3C3E48;stroke-width:4;stroke-linecap:round;stroke-linejoin:round;stroke-miterlimit:10;}
	.st60{fill:#A8ABBA;}
	.st61{fill:#D5D8E3;}
	.st62{fill:#5B5F70;stroke:#3C3E48;stroke-width:2;stroke-miterlimit:10;}
	.st63{fill:#DEBF4E;}
	.st64{fill:#6BBF92;}
	.st65{fill:#BA7082;}
	.st66{fill:#95BDC2;}
	.st67{fill:#CFC4AE;stroke:#3C3E48;stroke-width:4;stroke-linejoin:round;stroke-miterlimit:10;}
	.st68{fill:#3C3E48;}
	.st69{fill:#ADAFBA;stroke:#3C3E48;stroke-width:4;stroke-linejoin:round;stroke-miterlimit:10;}
	.st70{fill:#E8B4A2;stroke:#C4826C;stroke-width:4;stroke-miterlimit:10;}
	.st71{fill:#5E5B4F;}
	.st72{fill:#F5EFD7;stroke:#B0AA90;stroke-width:4;stroke-miterlimit:10;}
	.st73{fill:#E8B4A2;stroke:#C5846F;stroke-width:4;stroke-miterlimit:10;}
	.st74{fill:none;stroke:#88BAB6;stroke-width:4;stroke-miterlimit:10;}
	.st75{fill:#FFFFFF;stroke:#734F4D;stroke-width:4;stroke-miterlimit:10;}
	.st76{fill:#B35F5B;}
	.st77{fill:#B35F5B;stroke:#995A57;stroke-width:4;stroke-linecap:round;stroke-miterlimit:10;}
	.st78{fill:#A3783C;stroke:#5E4F39;stroke-width:4;stroke-miterlimit:10;}
	.st79{fill:#CC7772;}
	.st80{fill:#8F6A42;stroke:#66513A;stroke-width:4;stroke-miterlimit:10;}
	.st81{fill:#695732;stroke:#C49133;stroke-width:2;stroke-linecap:round;stroke-linejoin:round;stroke-miterlimit:10;}
	.st82{fill:#5EAD8F;stroke:#40856A;stroke-width:2;stroke-linecap:round;stroke-linejoin:round;stroke-miterlimit:10;}
	.st83{fill:#C2F2FF;stroke:#FFFFFF;stroke-width:4;stroke-miterlimit:10;}
	.st84{fill:none;stroke:#E6F9FF;stroke-width:4;stroke-linecap:round;stroke-linejoin:round;stroke-miterlimit:10;}
	.st85{fill:#E6F9FF;}
	.st86{fill:#B3CC93;stroke:#93B06D;stroke-width:4;stroke-miterlimit:10;}
	.st87{fill:#F5E5B0;stroke:#E0C97E;stroke-width:2;stroke-miterlimit:10;}
	.st88{fill:url(#SVGID_1_);stroke:#3C3E48;stroke-width:4;stroke-linejoin:round;stroke-miterlimit:10;}
	.st89{fill:url(#SVGID_2_);stroke:#3C3E48;stroke-width:4;stroke-linejoin:round;stroke-miterlimit:10;}
</style>
<g>
	<g>
		<g>
			<circle class="st7" cx="85.08" cy="83.61" r="33.12"/>
			<path class="st8" d="M84.78,66.03c6.08-4.42,9.65-6.86,10.91-14.27c0.88-5.17-1.07-10.35-2.97-15.24
				c-0.38-0.99-0.79-2.01-1.56-2.73c-2.08-1.96-5.44-0.83-8.02,0.39c-0.38-2.93,4.73-4.43,4.22-7.33c-0.11-0.64-0.5-1.2-0.89-1.73
				C81.37,18.11,75.89,11.39,70.04,5c-1.47-1.6-3.21-3.31-5.39-3.33c-3.87-0.04-5.58,4.88-5.67,8.75
				c-0.14,6.43,1.12,12.89,3.66,18.79c1.36-0.67,3.16-0.26,4.1,0.93c-2.05,0.16-3.64,2.02-4.18,4s-0.23,4.09,0.07,6.12
				c0.61,4.09,1.22,8.17,1.83,12.26c2.05,0.01,4.11,0.01,6.16,0.02c0.61,0,1.25,0.02,1.75,0.37c1.35,0.96,0.26,3.14-1.14,4.01
				s-3.25,1.55-3.62,3.16c-0.2,0.89,0.14,1.8,0.47,2.65c1.18,3,2.46,6.14,4.97,8.18c2.5,2.04,6.63,2.46,8.75,0.02
				c2.33,2.91,1.26,7.12,1.3,10.84s3.13,8.3,6.52,6.75c-3.4-9.5-4.51-23.13-4.51-23.13"/>
			<path class="st8" d="M75.15,101.68c-7.51,0.31-10.93,0.97-16.08,6.43c-3.6,3.81-4.86,9.2-5.98,14.33
				c-0.23,1.03-0.45,2.11-0.21,3.14c0.65,2.78,4.07,3.71,6.89,4.12c-1.31,2.64-6.39,1.06-7.58,3.76c-0.26,0.6-0.25,1.28-0.22,1.93
				c0.34,8.66,1.17,17.29,2.5,25.85c0.33,2.15,0.84,4.53,2.64,5.76c3.2,2.18,7.35-0.96,9.57-4.14c3.68-5.27,6.21-11.34,7.38-17.67
				c-1.5-0.19-2.78-1.53-2.89-3.05c1.8,1,4.15,0.34,5.69-1.01s2.46-3.27,3.34-5.13c1.76-3.74,3.52-7.48,5.28-11.21
				c-1.71-1.14-3.41-2.29-5.12-3.43c-0.5-0.34-1.03-0.71-1.25-1.27c-0.59-1.54,1.53-2.76,3.18-2.71c1.65,0.05,3.56,0.51,4.76-0.62
				c0.66-0.63,0.88-1.58,1.08-2.47c0.68-3.15,1.36-6.48,0.4-9.56s-4.16-5.72-7.27-4.87c-0.32-3.71,2.9-6.62,4.93-9.74
				c2.03-3.12,2-8.64-1.68-9.23c-2.44,9.79-10.28,21.07-10.28,21.07"/>
			<path class="st9" d="M105.81,70.13c6.5,3.77,8.86,4.7,16.14,2.86c5.08-1.29,9.04-5.16,12.73-8.88c0.75-0.75,1.51-1.54,1.87-2.53
				c0.63-1.8-0.22-3.56-1.5-5.09c-0.8-0.96,0.26-2.36,1.42-1.89c1.71,0.68,3.47,1.65,4.89,0.7c0.54-0.36,0.89-0.95,1.22-1.51
				c4.86-8.34,9.18-16.98,12.95-25.86c0.05-0.13,0.09-0.27,0.1-0.41c0.57-6.85-6.3-6.63-10.7-4.8c-5.59,2.33-10.7,5.8-14.93,10.12
				c-0.39,0.4-0.49,1.03-0.18,1.49c0.02,0.03,0.04,0.06,0.06,0.09c0.65,1.05-0.56,2.21-1.66,1.66c-1.06-0.53-2.35-0.69-3.54-0.51
				c-2.03,0.32-3.83,1.44-5.57,2.54l-9.59,6.07c-0.51,0.32-0.71,0.97-0.46,1.52l2.05,4.68c0.24,0.55,0.49,1.15,0.37,1.75
				c-0.33,1.62-2.77,1.51-4.13,0.58s-2.73-2.35-4.35-2.03c-0.89,0.17-1.59,0.85-2.23,1.5c-2.27,2.3-4.62,4.74-5.47,7.85
				c-0.74,2.71,0.14,6.04,2.4,7.49c0.62,0.4,0.69,1.29,0.19,1.83c-2.05,2.22-5.58,2.95-8.47,4.26c-2.83,1.29-5.34,4.76-4.48,7.31
				c0.27,0.81,1.34,1.01,1.96,0.42c7.11-6.65,18.89-11.08,18.89-11.08"/>
			<path class="st9" d="M91.75,107.34c-4.77,5.8-6.07,7.99-5.43,15.47c0.45,5.22,3.63,9.75,6.71,14c0.62,0.86,1.27,1.74,2.2,2.25
				c1.67,0.91,3.55,0.36,5.26-0.65c1.08-0.64,2.29,0.63,1.64,1.71c-0.95,1.58-2.19,3.15-1.48,4.71c0.27,0.59,0.79,1.03,1.29,1.45
				c7.44,6.14,15.28,11.8,23.44,16.95c0.12,0.07,0.25,0.13,0.39,0.17c6.67,1.66,7.56-5.14,6.46-9.78
				c-1.4-5.89-3.99-11.49-7.58-16.36c-0.33-0.45-0.94-0.65-1.45-0.42c-0.03,0.01-0.07,0.03-0.1,0.04c-1.14,0.47-2.1-0.91-1.38-1.91
				c0.69-0.96,1.06-2.21,1.07-3.41c0.02-2.06-0.8-4.02-1.61-5.91l-4.44-10.44c-0.24-0.55-0.84-0.85-1.42-0.7l-4.95,1.27
				c-0.59,0.15-1.22,0.3-1.78,0.08c-1.55-0.59-1.04-2.98,0.1-4.17c1.14-1.2,2.76-2.32,2.71-3.97c-0.03-0.91-0.59-1.71-1.12-2.45
				c-1.9-2.61-3.93-5.33-6.86-6.67c-2.55-1.17-5.99-0.84-7.78,1.17c-0.49,0.55-1.38,0.47-1.84-0.11c-1.86-2.38-2.01-5.98-2.84-9.04
				c-0.81-3-3.83-6.04-6.49-5.6c-0.84,0.14-1.21,1.16-0.73,1.87c5.42,8.09,7.88,20.43,7.88,20.43"/>
			<path class="st9" d="M66.27,65.1c0.72-7.48,0.58-10.02-4.13-15.87c-3.29-4.08-8.46-6.07-13.38-7.88
				c-0.99-0.37-2.03-0.74-3.08-0.64c-1.9,0.17-3.14,1.68-4,3.48c-0.54,1.13-2.25,0.75-2.31-0.5c-0.09-1.84,0.05-3.84-1.4-4.73
				c-0.56-0.34-1.23-0.42-1.88-0.48c-9.6-0.94-19.26-1.27-28.91-0.99c-0.14,0-0.28,0.03-0.41,0.08c-6.46,2.34-3.41,8.49,0.1,11.72
				c4.45,4.11,9.73,7.31,15.43,9.35c0.52,0.19,1.14,0.02,1.43-0.46c0.02-0.03,0.04-0.06,0.06-0.09c0.69-1.03,2.24-0.42,2.21,0.82
				c-0.04,1.19,0.35,2.43,1.01,3.43c1.13,1.72,2.91,2.88,4.63,4l9.51,6.19c0.5,0.33,1.17,0.24,1.57-0.21l3.4-3.82
				c0.4-0.45,0.84-0.93,1.43-1.07c1.61-0.38,2.53,1.89,2.25,3.52c-0.28,1.63-1,3.46-0.03,4.8c0.53,0.74,1.44,1.09,2.3,1.4
				c3.03,1.1,6.23,2.23,9.42,1.7c2.77-0.46,5.44-2.64,5.81-5.31c0.1-0.73,0.88-1.16,1.59-0.93c2.87,0.94,5,3.84,7.4,5.92
				c2.35,2.04,6.55,2.87,8.51,1.02c0.62-0.59,0.36-1.63-0.43-1.96C75.33,73.92,66.4,65.06,66.4,65.06"/>
			<path class="st10" d="M81.16,84.9c-3.34-0.41-6.81-0.82-9.96,0.28c-3.15,1.09-5.86,4.15-5.47,7.58c0.45,3.93,4.6,7.99,2.37,11.13
				c-1.11,1.56-3.26,1.79-5.17,1.89c-4.74,0.24-9.47,0.48-14.21,0.72c-0.82,0.04-1.68,0.08-2.44-0.26c-1.74-0.78-2.23-3.08-2.2-5.01
				c0.03-1.93,0.29-4.03-0.79-5.65s-4.16-1.62-4.3,0.3c0.61,2.57,1.22,5.14,1.84,7.71c-1.9,0.73-3.88,1.47-5.92,1.26
				s-4.15-1.69-4.41-3.78c-0.26-2.06,1.14-4.58-0.41-5.97c-1.41-1.26-3.48,0.09-4.76,1.41c2.3,1.11,1.65,5.02-0.57,6.17
				c-2.21,1.15-4.93,0.44-7.34-0.36c-4.05-1.35-8.05-2.88-11.98-4.59C3.43,96.83,1.1,95.45,1,93.22c-0.08-1.68,1.19-3.03,2.41-4.11
				c4.82-4.26,10.33-7.69,16.26-10.13c2.73-1.12,6.6-1.66,8.1,1.02c0.56,1,0.61,2.23,1.22,3.2c1.53,2.43,6.04,0.41,5.25-2.34
				c-0.26-0.91-0.93-1.7-1.01-2.63c-0.17-1.84,1.85-2.93,3.55-3.45c4.31-1.33,8.77-2.22,13.28-2.64c2.76-0.26,6.4,0.28,7.06,3.07
				c0.25,1.08-0.07,2.23,0.22,3.31c0.29,1.07,1.82,1.91,2.41,1c-0.62-2.36-1.25-4.87-0.58-7.18s3.15-4.19,5.36-3.25
				c3.12,1.32,2.56,5.95,1.43,9.13c6.39,0.86,12.77,1.73,19.16,2.59"/>
			<path class="st11" d="M87.97,80.21c2.69,2.03,5.49,4.11,8.77,4.73c3.27,0.62,7.15-0.67,8.52-3.83c1.57-3.63,0-9.22,3.51-10.83
				c1.74-0.8,3.72,0.08,5.42,0.95c4.22,2.16,8.45,4.31,12.67,6.47c0.73,0.37,1.49,0.77,1.99,1.45c1.12,1.55,0.4,3.79-0.6,5.44
				c-0.99,1.65-2.26,3.35-2.14,5.29c0.13,1.94,2.79,3.48,3.87,1.89c0.75-2.53,1.51-5.07,2.26-7.6c2.01,0.31,4.09,0.66,5.75,1.87
				c1.66,1.2,2.75,3.54,1.93,5.48c-0.81,1.92-3.27,3.4-2.63,5.37c0.59,1.8,3.06,1.65,4.83,1.16c-1.44-2.11,1.08-5.17,3.57-5.07
				s4.49,2.08,6.18,3.98c2.84,3.19,5.54,6.52,8.09,9.96c1.31,1.77,2.63,4.13,1.61,6.11c-0.77,1.49-2.55,2.03-4.14,2.35
				c-6.3,1.28-12.79,1.51-19.15,0.66c-2.93-0.39-6.55-1.86-6.51-4.93c0.02-1.14,0.59-2.23,0.54-3.38c-0.11-2.87-5.03-3.38-5.72-0.59
				c-0.23,0.92-0.04,1.93-0.44,2.79c-0.77,1.68-3.06,1.61-4.8,1.22c-4.4-1-8.7-2.46-12.82-4.34c-2.52-1.15-5.41-3.44-4.58-6.18
				c0.32-1.07,1.18-1.9,1.46-2.98c0.28-1.08-0.62-2.56-1.59-2.07c-0.64,2.36-1.35,4.84-3.08,6.51s-4.82,2.06-6.27,0.14
				c-2.04-2.7,0.75-6.44,3.33-8.63c-5.1-3.94-10.2-7.88-15.3-11.81"/>
			<ellipse class="st12" cx="83.93" cy="81.8" rx="5.04" ry="4.87"/>
		</g>
	</g>
</g>
</svg>
