<?xml version="1.0" encoding="utf-8"?>
<!-- Generator: Adobe Adobe Illustrator 24.2.0, SVG Export Plug-In . SVG Version: 6.00 Build 0)  -->
<svg version="1.1" id="レイヤー_1" xmlns="http://www.w3.org/2000/svg" xmlns:xlink="http://www.w3.org/1999/xlink" x="0px"
	 y="0px" viewBox="0 0 113.75 109.76" style="enable-background:new 0 0 113.75 109.76;" xml:space="preserve">
<style type="text/css">
	.st0{fill:#856254;stroke:#FFFFFF;stroke-width:9;stroke-miterlimit:10;}
	.st1{fill:#90D15A;stroke:#6F9E5D;stroke-width:2;stroke-miterlimit:10;}
	.st2{fill:#A5DB91;stroke:#8CBA7B;stroke-width:2;stroke-miterlimit:10;}
	.st3{fill:#85B370;stroke:#6D8A60;stroke-width:2;stroke-miterlimit:10;}
	.st4{fill:#FFFFFF;stroke:#FFFFFF;stroke-width:2;stroke-miterlimit:10;}
	.st5{fill:#4EA6CF;stroke:#FFFFFF;stroke-width:4;stroke-miterlimit:10;}
	.st6{fill:#4A4846;stroke:#FFFFFF;stroke-width:2;stroke-miterlimit:10;}
	.st7{fill:#756045;stroke:#FFFFFF;stroke-width:9;stroke-miterlimit:10;}
	.st8{fill:#4D9967;stroke:#467054;stroke-width:2;stroke-miterlimit:10;}
	.st9{fill:#67AB5C;stroke:#4D9967;stroke-width:2;stroke-linecap:round;stroke-linejoin:round;stroke-miterlimit:10;}
	.st10{fill:#4A7344;stroke:#3B6B4C;stroke-width:2;stroke-miterlimit:10;}
	.st11{fill:#4A7344;stroke:#457045;stroke-width:2;stroke-miterlimit:10;}
	.st12{fill:#67AB5C;}
	.st13{fill:#806349;stroke:#453E36;stroke-width:4;stroke-linejoin:round;stroke-miterlimit:10;}
	.st14{fill:#66513F;stroke:#453E36;stroke-width:4;stroke-linejoin:round;stroke-miterlimit:10;}
	.st15{fill:#AD8050;stroke:#6E6651;stroke-width:4;stroke-miterlimit:10;}
	.st16{fill:#EBD698;stroke:#B09E6D;stroke-width:4;stroke-miterlimit:10;}
	.st17{fill:#7D7766;stroke:#DEC478;stroke-width:8;stroke-miterlimit:10;}
	.st18{fill:#F2D16D;stroke:#B09E6D;stroke-width:8;stroke-miterlimit:10;}
	.st19{fill:#8F6840;}
	.st20{fill:#BA8856;stroke:#705236;stroke-width:4;stroke-linecap:round;stroke-linejoin:round;stroke-miterlimit:10;}
	.st21{fill:#BA8856;stroke:#705236;stroke-width:4;stroke-linejoin:round;stroke-miterlimit:10;}
	.st22{fill:#75726E;stroke:#75726E;stroke-width:4;stroke-miterlimit:10;}
	.st23{fill:#5E5E5D;stroke:#5E5C59;stroke-width:5;stroke-miterlimit:10;}
	.st24{fill:#ABA198;}
	.st25{fill:#BFBEBD;stroke:#75726E;stroke-width:4;stroke-miterlimit:10;}
	.st26{fill:none;stroke:#454443;stroke-width:4;stroke-linejoin:round;stroke-miterlimit:10;}
	.st27{fill:#BFBEBD;}
	.st28{fill:#D9D9D9;}
	.st29{fill:#BA8856;}
	.st30{fill:#9C7752;}
	.st31{fill:#ED7472;}
	.st32{fill:#CC7270;}
	.st33{fill:#50BED4;}
	.st34{fill:#51ABBD;}
	.st35{fill:#3A7BD6;}
	.st36{fill:#4370B0;}
	.st37{fill:#FCBB51;}
	.st38{fill:none;stroke:#6E5842;stroke-width:4;stroke-linecap:round;stroke-linejoin:round;stroke-miterlimit:10;}
	.st39{fill:#A3D9D8;stroke:#574131;stroke-width:6;stroke-linejoin:round;stroke-miterlimit:10;}
	.st40{fill:#A3D9D8;}
	.st41{fill:#D3EDED;}
	.st42{fill:#574131;}
	.st43{fill:#7D5B42;stroke:#302821;stroke-width:4;stroke-miterlimit:10;}
	.st44{fill:#574131;stroke:#FFFFFF;stroke-width:2;stroke-miterlimit:10;}
	.st45{fill:#705744;}
	.st46{fill:#426C7D;stroke:#39525C;stroke-width:2;stroke-linejoin:round;stroke-miterlimit:10;}
	.st47{fill:#97C0CF;}
	.st48{fill:#9CDBD6;}
	.st49{fill:#C9F2EE;}
	.st50{fill:#C9F2EE;stroke:#E3AB74;stroke-miterlimit:10;}
	.st51{fill:none;stroke:#8A7B6B;stroke-width:4;stroke-linecap:round;stroke-linejoin:round;stroke-miterlimit:10;}
	.st52{fill:#FFFFFF;}
	.st53{fill:#666666;}
	.st54{fill:none;stroke:#575757;stroke-width:4;stroke-linecap:round;stroke-linejoin:round;stroke-miterlimit:10;}
	.st55{fill:none;stroke:#303030;stroke-linecap:round;stroke-miterlimit:10;}
	.st56{fill:none;stroke:#303030;stroke-linecap:round;stroke-linejoin:round;stroke-miterlimit:10;}
	.st57{fill:none;stroke:#C28282;stroke-linecap:round;stroke-linejoin:round;stroke-miterlimit:10;}
	.st58{fill:#5B5F70;stroke:#343640;stroke-width:4;stroke-linejoin:round;stroke-miterlimit:10;}
	.st59{fill:#5B5F70;stroke:#3C3E48;stroke-width:4;stroke-linecap:round;stroke-linejoin:round;stroke-miterlimit:10;}
	.st60{fill:#A8ABBA;}
	.st61{fill:#D5D8E3;}
	.st62{fill:#5B5F70;stroke:#3C3E48;stroke-width:2;stroke-miterlimit:10;}
	.st63{fill:#DEBF4E;}
	.st64{fill:#6BBF92;}
	.st65{fill:#BA7082;}
	.st66{fill:#95BDC2;}
	.st67{fill:#CFC4AE;stroke:#3C3E48;stroke-width:4;stroke-linejoin:round;stroke-miterlimit:10;}
	.st68{fill:#3C3E48;}
	.st69{fill:#ADAFBA;stroke:#3C3E48;stroke-width:4;stroke-linejoin:round;stroke-miterlimit:10;}
	.st70{fill:#E8B4A2;stroke:#C4826C;stroke-width:4;stroke-miterlimit:10;}
	.st71{fill:#5E5B4F;}
	.st72{fill:#F5EFD7;stroke:#B0AA90;stroke-width:4;stroke-miterlimit:10;}
	.st73{fill:#E8B4A2;stroke:#C5846F;stroke-width:4;stroke-miterlimit:10;}
	.st74{fill:none;stroke:#88BAB6;stroke-width:4;stroke-miterlimit:10;}
	.st75{fill:#FFFFFF;stroke:#734F4D;stroke-width:4;stroke-miterlimit:10;}
	.st76{fill:#B35F5B;}
	.st77{fill:#B35F5B;stroke:#995A57;stroke-width:4;stroke-linecap:round;stroke-miterlimit:10;}
	.st78{fill:#A3783C;stroke:#5E4F39;stroke-width:4;stroke-miterlimit:10;}
	.st79{fill:#CC7772;}
	.st80{fill:#8F6A42;stroke:#66513A;stroke-width:4;stroke-miterlimit:10;}
	.st81{fill:#695732;stroke:#C49133;stroke-width:2;stroke-linecap:round;stroke-linejoin:round;stroke-miterlimit:10;}
	.st82{fill:#5EAD8F;stroke:#40856A;stroke-width:2;stroke-linecap:round;stroke-linejoin:round;stroke-miterlimit:10;}
	.st83{fill:#C2F2FF;stroke:#FFFFFF;stroke-width:4;stroke-miterlimit:10;}
	.st84{fill:none;stroke:#E6F9FF;stroke-width:4;stroke-linecap:round;stroke-linejoin:round;stroke-miterlimit:10;}
	.st85{fill:#E6F9FF;}
	.st86{fill:#B3CC93;stroke:#93B06D;stroke-width:4;stroke-miterlimit:10;}
	.st87{fill:#F5E5B0;stroke:#E0C97E;stroke-width:2;stroke-miterlimit:10;}
	.st88{fill:url(#SVGID_1_);stroke:#3C3E48;stroke-width:4;stroke-linejoin:round;stroke-miterlimit:10;}
	.st89{fill:url(#SVGID_2_);stroke:#3C3E48;stroke-width:4;stroke-linejoin:round;stroke-miterlimit:10;}
</style>
<g>
	<g>
		<g>
			<circle class="st0" cx="54.21" cy="51.58" r="39.55"/>
			<path class="st1" d="M56.59,49.23c0.99-9.16,0.59-18.97-4.34-26.75C48.28,16.22,41.85,12.02,35.61,8
				c-3.19-2.05-6.38-4.11-9.57-6.16c-2.2,5.98,0.2,12.57,2.57,18.48c1.81,4.5,3.67,9.09,6.84,12.77c2.88,3.34,6.7,5.74,9.82,8.87
				c3.58,3.59,7.07,8.52,12.13,8.29"/>
			<path class="st1" d="M55.28,49.97c-9.03-1.83-18.84-2.35-27.04,1.84c-6.6,3.37-11.39,9.39-15.96,15.22
				C9.94,70.02,7.6,73,5.26,75.99c5.75,2.74,12.53,0.97,18.64-0.85c4.65-1.38,9.39-2.81,13.34-5.62c3.6-2.56,6.34-6.14,9.74-8.96
				c3.9-3.23,9.13-6.25,9.38-11.31"/>
			<path class="st1" d="M55.7,51.41c1.64,9.06,4.78,18.37,11.71,24.44c5.58,4.89,12.93,7.11,20.05,9.2
				c3.64,1.07,7.28,2.14,10.92,3.21c0.42-6.36-3.73-12-7.68-17.01c-3-3.81-6.08-7.69-10.16-10.32c-3.71-2.39-8.05-3.62-11.92-5.74
				c-4.45-2.43-9.19-6.18-13.98-4.53"/>
			<path class="st2" d="M82.25,1.73c-8.47,3.62-16.83,8.77-21.2,16.88c-3.51,6.53-4.03,14.2-4.48,21.6
				c-0.23,3.79-0.46,7.57-0.68,11.36c6.29-1.01,10.86-6.33,14.86-11.29c3.04-3.78,6.13-7.65,7.78-12.21
				c1.5-4.15,1.73-8.66,2.92-12.91c1.37-4.88,3.96-10.33,1.29-14.64"/>
			<path class="st2" d="M55.41,49.81c-8.47,3.62-16.83,8.77-21.2,16.88c-3.51,6.53-4.03,14.2-4.48,21.6
				c-0.23,3.79-0.46,7.57-0.68,11.36c6.29-1.01,10.86-6.33,14.86-11.29c3.04-3.78,6.13-7.65,7.78-12.21
				c1.5-4.15,1.73-8.66,2.92-12.91c1.37-4.88,3.96-10.33,1.29-14.64"/>
			<path class="st2" d="M55.45,49.5c-5.23-7.58-11.93-14.76-20.74-17.44c-7.1-2.15-14.72-1.15-22.06-0.12
				c-3.76,0.53-7.51,1.05-11.27,1.58c2.24,5.97,8.35,9.4,14.01,12.33c4.31,2.23,8.71,4.5,13.51,5.21c4.37,0.65,8.83-0.02,13.23,0.31
				c5.05,0.38,10.91,1.84,14.6-1.63"/>
			<path class="st3" d="M111.57,35.32c-8.49-3.57-18-6.01-26.87-3.52c-7.14,2.01-13.01,6.96-18.65,11.78
				c-2.88,2.47-5.76,4.93-8.65,7.4c5.1,3.82,12.1,3.42,18.44,2.84c4.83-0.44,9.76-0.9,14.19-2.89c4.03-1.8,7.43-4.77,11.31-6.86
				c4.46-2.4,10.19-4.33,11.42-9.24"/>
			<path class="st3" d="M61.15,107.57c4.91-7.79,8.87-16.78,7.85-25.94c-0.82-7.37-4.75-13.98-8.59-20.32
				c-1.96-3.25-3.93-6.49-5.89-9.74c-4.6,4.41-5.34,11.38-5.81,17.73c-0.35,4.84-0.7,9.78,0.53,14.47c1.12,4.27,3.5,8.1,4.93,12.28
				c1.64,4.79,2.61,10.76,7.26,12.78"/>
		</g>
	</g>
</g>
</svg>
