<?xml version="1.0" encoding="utf-8"?>
<!-- Generator: Adobe Adobe Illustrator 24.2.0, SVG Export Plug-In . SVG Version: 6.00 Build 0)  -->
<svg version="1.1" xmlns="http://www.w3.org/2000/svg" xmlns:xlink="http://www.w3.org/1999/xlink" x="0px" y="0px"
	 viewBox="0 0 346 107.5" style="enable-background:new 0 0 346 107.5;" xml:space="preserve">
<style type="text/css">
	.st0{fill:#FFFFFF;stroke:#232C33;stroke-width:3;stroke-linecap:round;stroke-linejoin:round;stroke-miterlimit:10;}
	.st1{fill:none;stroke:#232C33;stroke-linecap:round;stroke-linejoin:round;stroke-miterlimit:10;}
	.st2{fill:none;stroke:#232C33;stroke-width:3;stroke-linecap:round;stroke-linejoin:round;stroke-miterlimit:10;}
	.st3{fill:#232C33;}
	.st4{fill:#FFFFFF;}
	.st5{fill:#73787F;}
	.st6{fill:#BEC5D3;}
	.st7{fill:#E5E9F5;}
	.st8{fill:#A1A7B8;}
	.st9{fill:#4E4E51;}
	.st10{fill:#7A3D05;}
	.st11{fill:#C79C6F;stroke:#7A3D05;stroke-width:5;stroke-miterlimit:10;}
	.st12{fill:#AA7D50;stroke:#7A3D05;stroke-width:4;stroke-miterlimit:10;}
	.st13{fill:#AA7D50;}
	.st14{fill:none;stroke:#F2C7A0;stroke-width:6;stroke-linecap:round;stroke-miterlimit:10;}
	.st15{fill:#C79C6F;}
	.st16{fill:#663300;}
	.st17{fill:#D6D6D6;}
	.st18{fill:#B2B0AF;}
	.st19{fill:none;stroke:#FFFFFF;stroke-width:6;stroke-linecap:round;stroke-miterlimit:10;}
	.st20{fill:none;stroke:#C79C6F;stroke-width:5;stroke-linecap:round;stroke-miterlimit:10;}
	.st21{fill:#565655;stroke:#282828;stroke-width:5;stroke-miterlimit:10;}
	.st22{fill:#3A3837;stroke:#282828;stroke-width:4;stroke-miterlimit:10;}
	.st23{fill:#333333;}
	.st24{fill:none;stroke:#A8A6A5;stroke-width:6;stroke-linecap:round;stroke-miterlimit:10;}
	.st25{fill:#E4E9F3;}
	.st26{fill:#BFC5D8;}
	.st27{fill:#E04E1B;}
	.st28{fill:#B23109;}
	.st29{fill:none;stroke:#F7997C;stroke-width:8;stroke-linecap:round;stroke-linejoin:round;stroke-miterlimit:10;}
	.st30{fill:#7CD5F5;}
	.st31{fill:#6CC0E2;}
	.st32{fill:none;stroke:#F9F9F9;stroke-width:8;stroke-linecap:round;stroke-linejoin:round;stroke-miterlimit:10;}
	.st33{fill:#DD1D6B;}
	.st34{fill:#B2084D;}
	.st35{fill:#DD1D6B;stroke:#B2084D;stroke-width:8;stroke-linecap:round;stroke-linejoin:round;stroke-miterlimit:10;}
	.st36{fill:#EA3B8B;}
	.st37{fill:#32373C;}
	.st38{fill:#636462;}
	.st39{fill:#3E4042;}
	.st40{fill:#999999;}
	.st41{fill:#C4BFC1;}
	.st42{fill:#2C2C2D;}
	.st43{fill:#A0A1A3;}
	.st44{fill:none;}
	.st45{fill:#C4BFC1;stroke:#16C916;stroke-miterlimit:10;}
	.st46{fill:#EBF0F5;stroke:#45494F;stroke-width:4;stroke-linecap:round;stroke-linejoin:round;stroke-miterlimit:10;}
	.st47{fill:#BEC5CC;stroke:#45494F;stroke-width:4;stroke-linecap:round;stroke-linejoin:round;stroke-miterlimit:10;}
</style>
<g id="Layer_1">
</g>
<g id="Layer_2">
	<polygon class="st5" points="339,76.01 336.92,79.52 336.33,80.51 324.5,100.51 324.5,76.01 	"/>
	<polygon class="st6" points="329.18,95.51 326.51,100.51 17.43,100.5 14.77,95.51 	"/>
	<rect x="16.5" y="80.51" class="st7" width="311" height="15"/>
	<rect x="16.5" y="76.01" class="st8" width="311" height="9.5"/>
	<g>
		<g>
			<path class="st9" d="M339,5.01v71l-2.08,3.51l-0.59,0.99l-11.83,20h-305l-11.83-20L7.66,80.5L5,76.01v-71H339 M339,0.01H5
				c-2.76,0-5,2.24-5,5v71c0,0.9,0.24,1.78,0.7,2.55l2.66,4.49c0.03,0.05,0.06,0.11,0.1,0.16l11.74,19.85
				c0.9,1.52,2.54,2.45,4.3,2.45h305c1.77,0,3.4-0.93,4.3-2.45l11.83-20l0.58-0.98l2.09-3.52c0.46-0.77,0.7-1.65,0.7-2.55v-71
				C344,2.25,341.76,0.01,339,0.01L339,0.01z"/>
		</g>
	</g>
	<rect x="5" y="5.01" class="st7" width="334" height="71"/>
</g>
</svg>
