<?xml version="1.0" encoding="utf-8"?>
<!-- Generator: Adobe Adobe Illustrator 24.2.0, SVG Export Plug-In . SVG Version: 6.00 Build 0)  -->
<svg version="1.1" xmlns="http://www.w3.org/2000/svg" xmlns:xlink="http://www.w3.org/1999/xlink" x="0px" y="0px"
	 viewBox="0 0 230 415.51" style="enable-background:new 0 0 230 415.51;" xml:space="preserve">
<style type="text/css">
	.st0{fill:#FFFFFF;stroke:#232C33;stroke-width:3;stroke-linecap:round;stroke-linejoin:round;stroke-miterlimit:10;}
	.st1{fill:none;stroke:#232C33;stroke-linecap:round;stroke-linejoin:round;stroke-miterlimit:10;}
	.st2{fill:none;stroke:#232C33;stroke-width:3;stroke-linecap:round;stroke-linejoin:round;stroke-miterlimit:10;}
	.st3{fill:#232C33;}
	.st4{fill:#FFFFFF;}
	.st5{fill:#73787F;}
	.st6{fill:#BEC5D3;}
	.st7{fill:#E5E9F5;}
	.st8{fill:#A1A7B8;}
	.st9{fill:#4E4E51;}
	.st10{fill:#7A3D05;}
	.st11{fill:#C79C6F;stroke:#7A3D05;stroke-width:5;stroke-miterlimit:10;}
	.st12{fill:#AA7D50;stroke:#7A3D05;stroke-width:4;stroke-miterlimit:10;}
	.st13{fill:#AA7D50;}
	.st14{fill:none;stroke:#F2C7A0;stroke-width:6;stroke-linecap:round;stroke-miterlimit:10;}
	.st15{fill:#C79C6F;}
	.st16{fill:#663300;}
	.st17{fill:#D6D6D6;}
	.st18{fill:#B2B0AF;}
	.st19{fill:none;stroke:#FFFFFF;stroke-width:6;stroke-linecap:round;stroke-miterlimit:10;}
	.st20{fill:none;stroke:#C79C6F;stroke-width:5;stroke-linecap:round;stroke-miterlimit:10;}
	.st21{fill:#565655;stroke:#282828;stroke-width:5;stroke-miterlimit:10;}
	.st22{fill:#3A3837;stroke:#282828;stroke-width:4;stroke-miterlimit:10;}
	.st23{fill:#333333;}
	.st24{fill:none;stroke:#A8A6A5;stroke-width:6;stroke-linecap:round;stroke-miterlimit:10;}
	.st25{fill:#E4E9F3;}
	.st26{fill:#BFC5D8;}
	.st27{fill:#E04E1B;}
	.st28{fill:#B23109;}
	.st29{fill:none;stroke:#F7997C;stroke-width:8;stroke-linecap:round;stroke-linejoin:round;stroke-miterlimit:10;}
	.st30{fill:#7CD5F5;}
	.st31{fill:#6CC0E2;}
	.st32{fill:none;stroke:#F9F9F9;stroke-width:8;stroke-linecap:round;stroke-linejoin:round;stroke-miterlimit:10;}
	.st33{fill:#DD1D6B;}
	.st34{fill:#B2084D;}
	.st35{fill:#DD1D6B;stroke:#B2084D;stroke-width:8;stroke-linecap:round;stroke-linejoin:round;stroke-miterlimit:10;}
	.st36{fill:#EA3B8B;}
	.st37{fill:#32373C;}
	.st38{fill:#636462;}
	.st39{fill:#3E4042;}
	.st40{fill:#999999;}
	.st41{fill:#C4BFC1;}
	.st42{fill:#2C2C2D;}
	.st43{fill:#A0A1A3;}
	.st44{fill:none;}
	.st45{fill:#C4BFC1;stroke:#16C916;stroke-miterlimit:10;}
	.st46{fill:#EBF0F5;stroke:#45494F;stroke-width:4;stroke-linecap:round;stroke-linejoin:round;stroke-miterlimit:10;}
	.st47{fill:#BEC5CC;stroke:#45494F;stroke-width:4;stroke-linecap:round;stroke-linejoin:round;stroke-miterlimit:10;}
</style>
<g id="Layer_1">
</g>
<g id="Layer_2">
	<g>
		<path class="st25" d="M10.28,98.62c-1.38,0-2.5-1.12-2.5-2.5V25.14c0-10.21,8.31-18.52,18.52-18.52h177.4
			c10.21,0,18.52,8.31,18.52,18.52v70.98c0,1.38-1.12,2.5-2.5,2.5H10.28z"/>
		<path class="st26" d="M203.7,9.12c8.85,0,16.02,7.17,16.02,16.02v70.98H10.28V25.14c0-8.85,7.17-16.02,16.02-16.02H203.7
			 M203.7,4.12H26.3c-11.59,0-21.02,9.43-21.02,21.02v70.98c0,2.76,2.24,5,5,5h209.44c2.76,0,5-2.24,5-5V25.14
			C224.72,13.55,215.29,4.12,203.7,4.12L203.7,4.12z"/>
	</g>
	<g>
		<path class="st25" d="M19.39,410.62c-6.4,0-11.62-5.21-11.62-11.62v-14.88c0-1.38,1.12-2.5,2.5-2.5h209.44
			c1.38,0,2.5,1.12,2.5,2.5v14.88c0,6.4-5.21,11.62-11.62,11.62H19.39z"/>
		<g>
			<path class="st26" d="M219.72,384.12v14.88c0,5.03-4.08,9.12-9.12,9.12H19.4c-5.03,0-9.12-4.08-9.12-9.12v-14.88H219.72
				 M219.72,379.12H10.28c-2.76,0-5,2.24-5,5v14.88c0,7.78,6.33,14.12,14.12,14.12h191.21c7.78,0,14.12-6.33,14.12-14.12v-14.88
				C224.72,381.36,222.48,379.12,219.72,379.12L219.72,379.12z"/>
		</g>
	</g>
	<g>
		<path class="st26" d="M209.66,391.12H20.34c-5.56,0-10.06-4.51-10.06-10.06v-13.94h209.44v13.94
			C219.72,386.62,215.21,391.12,209.66,391.12z"/>
	</g>
	<g>
		<path class="st27" d="M13.24,380.12c-3.68,0-6.67-2.99-6.67-6.67V106.79c0-3.68,2.99-6.67,6.67-6.67h203.53
			c3.67,0,6.67,2.99,6.67,6.67v266.67c0,3.68-2.99,6.67-6.67,6.67H13.24z"/>
		<g>
			<path class="st28" d="M216.76,104.12c1.47,0,2.67,1.2,2.67,2.67v266.67c0,1.47-1.2,2.67-2.67,2.67H13.23
				c-1.47,0-2.67-1.2-2.67-2.67V106.79c0-1.47,1.2-2.67,2.67-2.67H216.76 M216.76,96.12H13.23c-5.89,0-10.67,4.77-10.67,10.67
				v266.67c0,5.89,4.77,10.67,10.67,10.67h203.53c5.89,0,10.67-4.77,10.67-10.67V106.79C227.43,100.9,222.66,96.12,216.76,96.12
				L216.76,96.12z"/>
		</g>
	</g>
	<g>
		<path class="st28" d="M219.6,164.12H10.4c-2.19,0-3.97-1.78-3.97-3.97v-52.06c0-2.19,1.78-3.97,3.97-3.97H219.6
			c2.19,0,3.97,1.78,3.97,3.97v52.06C223.58,162.34,221.8,164.12,219.6,164.12z"/>
	</g>
	<g>
		<path class="st26" d="M170.29,88.12H53.71C46.69,88.12,41,82.43,41,75.41V33.84c0-7.02,5.69-12.71,12.71-12.71h116.57
			c7.02,0,12.71,5.69,12.71,12.71v41.57C183,82.43,177.31,88.12,170.29,88.12z"/>
	</g>
	<g>
		<path class="st27" d="M10.67,152.12c-3.67,0-6.67-2.99-6.67-6.67v-38.67c0-3.68,2.99-6.67,6.67-6.67h208.67
			c3.67,0,6.67,2.99,6.67,6.67v38.67c0,3.68-2.99,6.67-6.67,6.67H10.67z"/>
		<g>
			<path class="st28" d="M219.33,104.12c1.47,0,2.67,1.2,2.67,2.67v38.67c0,1.47-1.2,2.67-2.67,2.67H10.67
				c-1.47,0-2.67-1.2-2.67-2.67v-38.67c0-1.47,1.2-2.67,2.67-2.67H219.33 M219.33,96.12H10.67C4.77,96.12,0,100.9,0,106.79v38.67
				c0,5.89,4.77,10.67,10.67,10.67h208.67c5.89,0,10.67-4.78,10.67-10.67v-38.67C230,100.9,225.22,96.12,219.33,96.12L219.33,96.12z
				"/>
		</g>
	</g>
	<g>
		<path class="st27" d="M53.71,78.12c-4.8,0-8.71-3.91-8.71-8.71V27.84c0-4.8,3.91-8.71,8.71-8.71h116.57c4.8,0,8.71,3.91,8.71,8.71
			v41.57c0,4.8-3.91,8.71-8.71,8.71H53.71z"/>
		<g>
			<path class="st28" d="M170.29,23.12c2.6,0,4.71,2.11,4.71,4.71v41.57c0,2.6-2.11,4.71-4.71,4.71H53.71
				c-2.6,0-4.71-2.11-4.71-4.71V27.84c0-2.6,2.11-4.71,4.71-4.71H170.29 M170.29,15.12H53.71C46.69,15.12,41,20.81,41,27.84v41.57
				c0,7.02,5.69,12.71,12.71,12.71h116.57c7.02,0,12.71-5.69,12.71-12.71V27.84C183,20.81,177.31,15.12,170.29,15.12L170.29,15.12z"
				/>
		</g>
	</g>
	<line class="st29" x1="216.93" y1="108.12" x2="12.71" y2="108.12"/>
	<line class="st29" x1="170" y1="28.12" x2="53.05" y2="28.12"/>
</g>
</svg>
