<?xml version="1.0" encoding="utf-8"?>
<!-- Generator: Adobe Adobe Illustrator 24.2.0, SVG Export Plug-In . SVG Version: 6.00 Build 0)  -->
<svg version="1.1" xmlns="http://www.w3.org/2000/svg" xmlns:xlink="http://www.w3.org/1999/xlink" x="0px" y="0px"
	 viewBox="0 0 184 164.88" style="enable-background:new 0 0 184 164.88;" xml:space="preserve">
<style type="text/css">
	.st0{fill:#FFFFFF;stroke:#232C33;stroke-width:3;stroke-linecap:round;stroke-linejoin:round;stroke-miterlimit:10;}
	.st1{fill:none;stroke:#232C33;stroke-linecap:round;stroke-linejoin:round;stroke-miterlimit:10;}
	.st2{fill:none;stroke:#232C33;stroke-width:3;stroke-linecap:round;stroke-linejoin:round;stroke-miterlimit:10;}
	.st3{fill:#232C33;}
	.st4{fill:#FFFFFF;}
	.st5{fill:#73787F;}
	.st6{fill:#BEC5D3;}
	.st7{fill:#E5E9F5;}
	.st8{fill:#A1A7B8;}
	.st9{fill:#4E4E51;}
	.st10{fill:#7A3D05;}
	.st11{fill:#C79C6F;stroke:#7A3D05;stroke-width:5;stroke-miterlimit:10;}
	.st12{fill:#AA7D50;stroke:#7A3D05;stroke-width:4;stroke-miterlimit:10;}
	.st13{fill:#AA7D50;}
	.st14{fill:none;stroke:#F2C7A0;stroke-width:6;stroke-linecap:round;stroke-miterlimit:10;}
	.st15{fill:#C79C6F;}
	.st16{fill:#663300;}
	.st17{fill:#D6D6D6;}
	.st18{fill:#B2B0AF;}
	.st19{fill:none;stroke:#FFFFFF;stroke-width:6;stroke-linecap:round;stroke-miterlimit:10;}
	.st20{fill:none;stroke:#C79C6F;stroke-width:5;stroke-linecap:round;stroke-miterlimit:10;}
	.st21{fill:#565655;stroke:#282828;stroke-width:5;stroke-miterlimit:10;}
	.st22{fill:#3A3837;stroke:#282828;stroke-width:4;stroke-miterlimit:10;}
	.st23{fill:#333333;}
	.st24{fill:none;stroke:#A8A6A5;stroke-width:6;stroke-linecap:round;stroke-miterlimit:10;}
	.st25{fill:#E4E9F3;}
	.st26{fill:#BFC5D8;}
	.st27{fill:#E04E1B;}
	.st28{fill:#B23109;}
	.st29{fill:none;stroke:#F7997C;stroke-width:8;stroke-linecap:round;stroke-linejoin:round;stroke-miterlimit:10;}
	.st30{fill:#7CD5F5;}
	.st31{fill:#6CC0E2;}
	.st32{fill:none;stroke:#F9F9F9;stroke-width:8;stroke-linecap:round;stroke-linejoin:round;stroke-miterlimit:10;}
	.st33{fill:#DD1D6B;}
	.st34{fill:#B2084D;}
	.st35{fill:#DD1D6B;stroke:#B2084D;stroke-width:8;stroke-linecap:round;stroke-linejoin:round;stroke-miterlimit:10;}
	.st36{fill:#EA3B8B;}
	.st37{fill:#32373C;}
	.st38{fill:#636462;}
	.st39{fill:#3E4042;}
	.st40{fill:#999999;}
	.st41{fill:#C4BFC1;}
	.st42{fill:#2C2C2D;}
	.st43{fill:#A0A1A3;}
	.st44{fill:none;}
	.st45{fill:#C4BFC1;stroke:#16C916;stroke-miterlimit:10;}
	.st46{fill:#EBF0F5;stroke:#45494F;stroke-width:4;stroke-linecap:round;stroke-linejoin:round;stroke-miterlimit:10;}
	.st47{fill:#BEC5CC;stroke:#45494F;stroke-width:4;stroke-linecap:round;stroke-linejoin:round;stroke-miterlimit:10;}
</style>
<g id="Layer_1">
</g>
<g id="Layer_2">
	<path class="st10" d="M156.58,0H27.42C12.27,0,0,12.27,0,27.42v109.17C0,151.73,12.27,164,27.42,164h129.17
		c15.14,0,27.42-12.27,27.42-27.42V27.42C184,12.27,171.73,0,156.58,0z"/>
	<g>
		<path class="st15" d="M18,150.4c-4.14,0-7.5-3.36-7.5-7.5V62c0-4.14,3.36-7.5,7.5-7.5s7.5,3.36,7.5,7.5v80.9
			C25.5,147.04,22.14,150.4,18,150.4z"/>
		<g>
			<path class="st13" d="M18,57.5c2.48,0,4.5,2.02,4.5,4.5v80.9c0,2.48-2.02,4.5-4.5,4.5s-4.5-2.02-4.5-4.5V62
				C13.5,59.52,15.52,57.5,18,57.5 M18,51.5c-5.8,0-10.5,4.7-10.5,10.5v80.9c0,5.8,4.7,10.5,10.5,10.5c5.8,0,10.5-4.7,10.5-10.5V62
				C28.5,56.2,23.8,51.5,18,51.5L18,51.5z"/>
		</g>
	</g>
	<g>
		<path class="st15" d="M166,150.21c-4.14,0-7.5-3.36-7.5-7.5v-80.9c0-4.14,3.36-7.5,7.5-7.5s7.5,3.36,7.5,7.5v80.9
			C173.5,146.85,170.14,150.21,166,150.21z"/>
		<g>
			<path class="st13" d="M166,57.31c2.48,0,4.5,2.02,4.5,4.5v80.9c0,2.48-2.02,4.5-4.5,4.5s-4.5-2.02-4.5-4.5v-80.9
				C161.5,59.33,163.52,57.31,166,57.31 M166,51.31c-5.8,0-10.5,4.7-10.5,10.5v80.9c0,5.8,4.7,10.5,10.5,10.5
				c5.8,0,10.5-4.7,10.5-10.5v-80.9C176.5,56.01,171.8,51.31,166,51.31L166,51.31z"/>
		</g>
	</g>
	<g>
		<path class="st15" d="M25.43,42c-9.92,0-18-8.07-18-18s8.08-18,18-18h127c9.92,0,18,8.07,18,18s-8.08,18-18,18H25.43z"/>
		<path class="st13" d="M152.43,9c8.27,0,15,6.73,15,15s-6.73,15-15,15h-127c-8.27,0-15-6.73-15-15s6.73-15,15-15H152.43 M152.43,3
			h-127c-11.6,0-21,9.4-21,21c0,11.6,9.4,21,21,21h127c11.6,0,21-9.4,21-21C173.43,12.4,164.03,3,152.43,3L152.43,3z"/>
	</g>
	<g>
		<path class="st15" d="M51.75,150.5c-7.86,0-14.25-6.39-14.25-14.25V68.75c0-7.85,6.39-14.25,14.25-14.25h80.51
			c7.86,0,14.25,6.39,14.25,14.25v67.51c0,7.86-6.39,14.25-14.25,14.25H51.75z"/>
		<path class="st13" d="M132.25,57.5c6.2,0,11.25,5.04,11.25,11.25v67.51c0,6.2-5.04,11.25-11.25,11.25H51.75
			c-6.2,0-11.25-5.04-11.25-11.25V68.75c0-6.2,5.04-11.25,11.25-11.25H132.25 M132.25,51.5H51.75c-9.52,0-17.25,7.72-17.25,17.25
			v67.51c0,9.52,7.72,17.25,17.25,17.25h80.51c9.52,0,17.25-7.72,17.25-17.25V68.75C149.5,59.22,141.78,51.5,132.25,51.5
			L132.25,51.5z"/>
	</g>
	<line class="st14" x1="21.43" y1="13.5" x2="156.43" y2="13.5"/>
	<line class="st14" x1="168.5" y1="60.5" x2="168.5" y2="143.5"/>
</g>
</svg>
