<?xml version="1.0" encoding="utf-8"?>
<!-- Generator: Adobe Adobe Illustrator 24.2.0, SVG Export Plug-In . SVG Version: 6.00 Build 0)  -->
<svg version="1.1" xmlns="http://www.w3.org/2000/svg" xmlns:xlink="http://www.w3.org/1999/xlink" x="0px" y="0px"
	 viewBox="0 0 442 184" style="enable-background:new 0 0 442 184;" xml:space="preserve">
<style type="text/css">
	.st0{fill:#FFFFFF;stroke:#232C33;stroke-width:3;stroke-linecap:round;stroke-linejoin:round;stroke-miterlimit:10;}
	.st1{fill:none;stroke:#232C33;stroke-linecap:round;stroke-linejoin:round;stroke-miterlimit:10;}
	.st2{fill:none;stroke:#232C33;stroke-width:3;stroke-linecap:round;stroke-linejoin:round;stroke-miterlimit:10;}
	.st3{fill:#232C33;}
	.st4{fill:#FFFFFF;}
	.st5{fill:#73787F;}
	.st6{fill:#BEC5D3;}
	.st7{fill:#E5E9F5;}
	.st8{fill:#A1A7B8;}
	.st9{fill:#4E4E51;}
	.st10{fill:#7A3D05;}
	.st11{fill:#C79C6F;stroke:#7A3D05;stroke-width:5;stroke-miterlimit:10;}
	.st12{fill:#AA7D50;stroke:#7A3D05;stroke-width:4;stroke-miterlimit:10;}
	.st13{fill:#AA7D50;}
	.st14{fill:none;stroke:#F2C7A0;stroke-width:6;stroke-linecap:round;stroke-miterlimit:10;}
	.st15{fill:#C79C6F;}
	.st16{fill:#663300;}
	.st17{fill:#D6D6D6;}
	.st18{fill:#B2B0AF;}
	.st19{fill:none;stroke:#FFFFFF;stroke-width:6;stroke-linecap:round;stroke-miterlimit:10;}
	.st20{fill:none;stroke:#C79C6F;stroke-width:5;stroke-linecap:round;stroke-miterlimit:10;}
	.st21{fill:#565655;stroke:#282828;stroke-width:5;stroke-miterlimit:10;}
	.st22{fill:#3A3837;stroke:#282828;stroke-width:4;stroke-miterlimit:10;}
	.st23{fill:#333333;}
	.st24{fill:none;stroke:#A8A6A5;stroke-width:6;stroke-linecap:round;stroke-miterlimit:10;}
	.st25{fill:#E4E9F3;}
	.st26{fill:#BFC5D8;}
	.st27{fill:#E04E1B;}
	.st28{fill:#B23109;}
	.st29{fill:none;stroke:#F7997C;stroke-width:8;stroke-linecap:round;stroke-linejoin:round;stroke-miterlimit:10;}
	.st30{fill:#7CD5F5;}
	.st31{fill:#6CC0E2;}
	.st32{fill:none;stroke:#F9F9F9;stroke-width:8;stroke-linecap:round;stroke-linejoin:round;stroke-miterlimit:10;}
	.st33{fill:#DD1D6B;}
	.st34{fill:#B2084D;}
	.st35{fill:#DD1D6B;stroke:#B2084D;stroke-width:8;stroke-linecap:round;stroke-linejoin:round;stroke-miterlimit:10;}
	.st36{fill:#EA3B8B;}
	.st37{fill:#32373C;}
	.st38{fill:#636462;}
	.st39{fill:#3E4042;}
	.st40{fill:#999999;}
	.st41{fill:#C4BFC1;}
	.st42{fill:#2C2C2D;}
	.st43{fill:#A0A1A3;}
	.st44{fill:none;}
	.st45{fill:#C4BFC1;stroke:#16C916;stroke-miterlimit:10;}
	.st46{fill:#EBF0F5;stroke:#45494F;stroke-width:4;stroke-linecap:round;stroke-linejoin:round;stroke-miterlimit:10;}
	.st47{fill:#BEC5CC;stroke:#45494F;stroke-width:4;stroke-linecap:round;stroke-linejoin:round;stroke-miterlimit:10;}
</style>
<g id="Layer_1">
</g>
<g id="Layer_2">
	<path class="st16" d="M432.89,1.41H8.61C4.96,1.41,2,4.37,2,8.02V162.3c0,3.65,2.96,6.61,6.61,6.61h424.27
		c3.65,0,6.61-2.96,6.61-6.61V8.02C439.5,4.37,436.54,1.41,432.89,1.41z"/>
	<g>
		<path class="st17" d="M234.07,46.91c-3.9,0-7.07-3.17-7.07-7.07V17.98c0-3.9,3.17-7.07,7.07-7.07h187.86
			c3.9,0,7.07,3.17,7.07,7.07v21.86c0,3.9-3.17,7.07-7.07,7.07H234.07z"/>
		<path class="st18" d="M421.93,13.91c2.24,0,4.07,1.83,4.07,4.07v21.86c0,2.24-1.83,4.07-4.07,4.07H234.07
			c-2.24,0-4.07-1.83-4.07-4.07V17.98c0-2.24,1.83-4.07,4.07-4.07H421.93 M421.93,7.91H234.07c-5.56,0-10.07,4.51-10.07,10.07v21.86
			c0,5.56,4.51,10.07,10.07,10.07h187.86c5.56,0,10.07-4.51,10.07-10.07V17.98C432,12.42,427.49,7.91,421.93,7.91L421.93,7.91z"/>
	</g>
	<g>
		<path class="st17" d="M241.25,177.41c-7.86,0-14.25-6.39-14.25-14.25V73.66c0-7.85,6.39-14.25,14.25-14.25h173.51
			c7.85,0,14.25,6.39,14.25,14.25v89.51c0,7.86-6.39,14.25-14.25,14.25H241.25z"/>
		<path class="st18" d="M414.75,62.41c6.2,0,11.25,5.04,11.25,11.25v89.51c0,6.2-5.04,11.25-11.25,11.25H241.25
			c-6.2,0-11.25-5.04-11.25-11.25V73.66c0-6.2,5.04-11.25,11.25-11.25H414.75 M414.75,56.41H241.25c-9.52,0-17.25,7.72-17.25,17.25
			v89.51c0,9.52,7.72,17.25,17.25,17.25h173.51c9.52,0,17.25-7.72,17.25-17.25V73.66C432,64.13,424.28,56.41,414.75,56.41
			L414.75,56.41z"/>
	</g>
	<g>
		<path class="st17" d="M26.25,177.41c-7.86,0-14.25-6.39-14.25-14.25V73.66c0-7.85,6.39-14.25,14.25-14.25h173.51
			c7.85,0,14.25,6.39,14.25,14.25v89.51c0,7.86-6.39,14.25-14.25,14.25H26.25z"/>
		<path class="st18" d="M199.75,62.41c6.2,0,11.25,5.04,11.25,11.25v89.51c0,6.2-5.04,11.25-11.25,11.25H26.25
			c-6.2,0-11.25-5.04-11.25-11.25V73.66c0-6.2,5.04-11.25,11.25-11.25H199.75 M199.75,56.41H26.25C16.72,56.41,9,64.13,9,73.66
			v89.51c0,9.52,7.72,17.25,17.25,17.25h173.51c9.52,0,17.25-7.72,17.25-17.25V73.66C217,64.13,209.28,56.41,199.75,56.41
			L199.75,56.41z"/>
	</g>
	<line class="st19" x1="242" y1="18.41" x2="415" y2="18.41"/>
	<g>
		<path class="st17" d="M19.07,46.91c-3.9,0-7.07-3.17-7.07-7.07V17.98c0-3.9,3.17-7.07,7.07-7.07h187.86c3.9,0,7.07,3.17,7.07,7.07
			v21.86c0,3.9-3.17,7.07-7.07,7.07H19.07z"/>
		<path class="st18" d="M206.93,13.91c2.24,0,4.07,1.83,4.07,4.07v21.86c0,2.24-1.83,4.07-4.07,4.07H19.07
			c-2.24,0-4.07-1.83-4.07-4.07V17.98c0-2.24,1.83-4.07,4.07-4.07H206.93 M206.93,7.91H19.07C13.51,7.91,9,12.42,9,17.98v21.86
			c0,5.56,4.51,10.07,10.07,10.07h187.86c5.56,0,10.07-4.51,10.07-10.07V17.98C217,12.42,212.49,7.91,206.93,7.91L206.93,7.91z"/>
	</g>
	<line class="st19" x1="34.59" y1="18.41" x2="203.43" y2="18.41"/>
	<line class="st19" x1="420" y1="70.41" x2="420" y2="161.41"/>
	<line class="st19" x1="206" y1="70.41" x2="206" y2="161.41"/>
</g>
</svg>
