<?xml version="1.0" encoding="utf-8"?>
<!-- Generator: Adobe Adobe Illustrator 24.2.0, SVG Export Plug-In . SVG Version: 6.00 Build 0)  -->
<svg version="1.1" xmlns="http://www.w3.org/2000/svg" xmlns:xlink="http://www.w3.org/1999/xlink" x="0px" y="0px"
	 viewBox="0 0 199 201.55" style="enable-background:new 0 0 199 201.55;" xml:space="preserve">
<style type="text/css">
	.st0{fill:#FFFFFF;stroke:#232C33;stroke-width:3;stroke-linecap:round;stroke-linejoin:round;stroke-miterlimit:10;}
	.st1{fill:none;stroke:#232C33;stroke-linecap:round;stroke-linejoin:round;stroke-miterlimit:10;}
	.st2{fill:none;stroke:#232C33;stroke-width:3;stroke-linecap:round;stroke-linejoin:round;stroke-miterlimit:10;}
	.st3{fill:#232C33;}
	.st4{fill:#FFFFFF;}
	.st5{fill:#73787F;}
	.st6{fill:#BEC5D3;}
	.st7{fill:#E5E9F5;}
	.st8{fill:#A1A7B8;}
	.st9{fill:#4E4E51;}
	.st10{fill:#7A3D05;}
	.st11{fill:#C79C6F;stroke:#7A3D05;stroke-width:5;stroke-miterlimit:10;}
	.st12{fill:#AA7D50;stroke:#7A3D05;stroke-width:4;stroke-miterlimit:10;}
	.st13{fill:#AA7D50;}
	.st14{fill:none;stroke:#F2C7A0;stroke-width:6;stroke-linecap:round;stroke-miterlimit:10;}
	.st15{fill:#C79C6F;}
	.st16{fill:#663300;}
	.st17{fill:#D6D6D6;}
	.st18{fill:#B2B0AF;}
	.st19{fill:none;stroke:#FFFFFF;stroke-width:6;stroke-linecap:round;stroke-miterlimit:10;}
	.st20{fill:none;stroke:#C79C6F;stroke-width:5;stroke-linecap:round;stroke-miterlimit:10;}
	.st21{fill:#565655;stroke:#282828;stroke-width:5;stroke-miterlimit:10;}
	.st22{fill:#3A3837;stroke:#282828;stroke-width:4;stroke-miterlimit:10;}
	.st23{fill:#333333;}
	.st24{fill:none;stroke:#A8A6A5;stroke-width:6;stroke-linecap:round;stroke-miterlimit:10;}
	.st25{fill:#E4E9F3;}
	.st26{fill:#BFC5D8;}
	.st27{fill:#E04E1B;}
	.st28{fill:#B23109;}
	.st29{fill:none;stroke:#F7997C;stroke-width:8;stroke-linecap:round;stroke-linejoin:round;stroke-miterlimit:10;}
	.st30{fill:#7CD5F5;}
	.st31{fill:#6CC0E2;}
	.st32{fill:none;stroke:#F9F9F9;stroke-width:8;stroke-linecap:round;stroke-linejoin:round;stroke-miterlimit:10;}
	.st33{fill:#DD1D6B;}
	.st34{fill:#B2084D;}
	.st35{fill:#DD1D6B;stroke:#B2084D;stroke-width:8;stroke-linecap:round;stroke-linejoin:round;stroke-miterlimit:10;}
	.st36{fill:#EA3B8B;}
	.st37{fill:#32373C;}
	.st38{fill:#636462;}
	.st39{fill:#3E4042;}
	.st40{fill:#999999;}
	.st41{fill:#C4BFC1;}
	.st42{fill:#2C2C2D;}
	.st43{fill:#A0A1A3;}
	.st44{fill:none;}
	.st45{fill:#C4BFC1;stroke:#16C916;stroke-miterlimit:10;}
	.st46{fill:#EBF0F5;stroke:#45494F;stroke-width:4;stroke-linecap:round;stroke-linejoin:round;stroke-miterlimit:10;}
	.st47{fill:#BEC5CC;stroke:#45494F;stroke-width:4;stroke-linecap:round;stroke-linejoin:round;stroke-miterlimit:10;}
</style>
<g id="Layer_1">
</g>
<g id="Layer_2">
	<path class="st21" d="M44.26,191.96L44.26,191.96c-8.57-2.44-14.14-10.68-13.21-19.54c2.38-22.69,6.88-63.24,9.18-69.67
		c0.49-1.37,1.06-2.54,1.66-3.53c3.31-5.44,3.7-12.15,0.87-17.84c-4.31-8.67-8.98-40.17-8.98-53.62c-0.01-32.23,133.3-31.91,133.3,0
		c0,13.45-4.67,44.95-8.98,53.62c-2.83,5.7-2.44,12.41,0.87,17.84c0.61,1,1.17,2.16,1.66,3.53c2.3,6.42,6.79,46.97,9.18,69.67
		c0.93,8.86-4.64,17.1-13.21,19.54l0,0C119.88,202.41,80.98,202.41,44.26,191.96z"/>
	
		<ellipse transform="matrix(0.1693 -0.9856 0.9856 0.1693 -118.6828 133.7034)" class="st22" cx="19.97" cy="137.26" rx="49.5" ry="14.5"/>
	
		<ellipse transform="matrix(0.9856 -0.1693 0.1693 0.9856 -20.6394 32.4507)" class="st22" cx="179.97" cy="137.26" rx="14.5" ry="49.5"/>
	<path class="st23" d="M160.42,50.19c-1.15,4.65-7.33,42.87-9.13,44.57c-5.29,5-27.93,8.18-51,8.94c-0.14,0.01-0.27,0.01-0.41,0.02
		c-0.14-0.01-0.27-0.01-0.41-0.02c-23.07-0.76-45.71-3.94-51-8.94c-1.8-1.7-6.98-39.92-8.13-44.57
		c-4.42-17.85,26.2-28.41,59.13-28.5h0.82C133.22,21.78,164.84,32.34,160.42,50.19z"/>
	<path class="st13" d="M99.88,103.72c-0.14,0-0.27,0.01-0.41,0.01v-0.03C99.61,103.71,99.74,103.71,99.88,103.72z"/>
	<path class="st13" d="M100.29,103.7v0.03c-0.14,0-0.27-0.01-0.41-0.01C100.02,103.71,100.15,103.71,100.29,103.7z"/>
	<path class="st24" d="M174.97,93.26c4,4,27.5,51.5,13.5,89.5"/>
	<path class="st24" d="M28.9,93.76c2.49,5.08,9.4,57.62-16.11,89.07"/>
	<path class="st24" d="M159.47,23.76c-11.04-16.41-88.17-25.29-119,1"/>
</g>
</svg>
