<?xml version="1.0" encoding="utf-8"?>
<!-- Generator: Adobe Adobe Illustrator 24.2.0, SVG Export Plug-In . SVG Version: 6.00 Build 0)  -->
<svg version="1.1" xmlns="http://www.w3.org/2000/svg" xmlns:xlink="http://www.w3.org/1999/xlink" x="0px" y="0px"
	 viewBox="0 0 243.49 172.28" style="enable-background:new 0 0 243.49 172.28;" xml:space="preserve">
<style type="text/css">
	.st0{fill:#FFFFFF;stroke:#232C33;stroke-width:3;stroke-linecap:round;stroke-linejoin:round;stroke-miterlimit:10;}
	.st1{fill:none;stroke:#232C33;stroke-linecap:round;stroke-linejoin:round;stroke-miterlimit:10;}
	.st2{fill:none;stroke:#232C33;stroke-width:3;stroke-linecap:round;stroke-linejoin:round;stroke-miterlimit:10;}
	.st3{fill:#232C33;}
	.st4{fill:#FFFFFF;}
	.st5{fill:#73787F;}
	.st6{fill:#BEC5D3;}
	.st7{fill:#E5E9F5;}
	.st8{fill:#A1A7B8;}
	.st9{fill:#4E4E51;}
	.st10{fill:#7A3D05;}
	.st11{fill:#C79C6F;stroke:#7A3D05;stroke-width:5;stroke-miterlimit:10;}
	.st12{fill:#AA7D50;stroke:#7A3D05;stroke-width:4;stroke-miterlimit:10;}
	.st13{fill:#AA7D50;}
	.st14{fill:none;stroke:#F2C7A0;stroke-width:6;stroke-linecap:round;stroke-miterlimit:10;}
	.st15{fill:#C79C6F;}
	.st16{fill:#663300;}
	.st17{fill:#D6D6D6;}
	.st18{fill:#B2B0AF;}
	.st19{fill:none;stroke:#FFFFFF;stroke-width:6;stroke-linecap:round;stroke-miterlimit:10;}
	.st20{fill:none;stroke:#C79C6F;stroke-width:5;stroke-linecap:round;stroke-miterlimit:10;}
	.st21{fill:#565655;stroke:#282828;stroke-width:5;stroke-miterlimit:10;}
	.st22{fill:#3A3837;stroke:#282828;stroke-width:4;stroke-miterlimit:10;}
	.st23{fill:#333333;}
	.st24{fill:none;stroke:#A8A6A5;stroke-width:6;stroke-linecap:round;stroke-miterlimit:10;}
	.st25{fill:#E4E9F3;}
	.st26{fill:#BFC5D8;}
	.st27{fill:#E04E1B;}
	.st28{fill:#B23109;}
	.st29{fill:none;stroke:#F7997C;stroke-width:8;stroke-linecap:round;stroke-linejoin:round;stroke-miterlimit:10;}
	.st30{fill:#7CD5F5;}
	.st31{fill:#6CC0E2;}
	.st32{fill:none;stroke:#F9F9F9;stroke-width:8;stroke-linecap:round;stroke-linejoin:round;stroke-miterlimit:10;}
	.st33{fill:#DD1D6B;}
	.st34{fill:#B2084D;}
	.st35{fill:#DD1D6B;stroke:#B2084D;stroke-width:8;stroke-linecap:round;stroke-linejoin:round;stroke-miterlimit:10;}
	.st36{fill:#EA3B8B;}
	.st37{fill:#32373C;}
	.st38{fill:#636462;}
	.st39{fill:#3E4042;}
	.st40{fill:#999999;}
	.st41{fill:#C4BFC1;}
	.st42{fill:#2C2C2D;}
	.st43{fill:#A0A1A3;}
	.st44{fill:none;}
	.st45{fill:#C4BFC1;stroke:#16C916;stroke-miterlimit:10;}
	.st46{fill:#EBF0F5;stroke:#45494F;stroke-width:4;stroke-linecap:round;stroke-linejoin:round;stroke-miterlimit:10;}
	.st47{fill:#BEC5CC;stroke:#45494F;stroke-width:4;stroke-linecap:round;stroke-linejoin:round;stroke-miterlimit:10;}
</style>
<g id="Layer_1">
</g>
<g id="Layer_2">
	<g>
		<g>
			<path class="st33" d="M59.37,168.28c-10.16,0-19.85-4.04-28.8-12.02c-10.53-9.39-17.88-23.41-20.71-39.48
				c-2.84-16.14-0.88-32.94,5.53-47.3c2.67-5.99,6.21-11.68,11.14-17.92c6.33-7.82,14.34-15.16,23.79-21.77
				c23.26-16.28,48-24.54,73.54-24.54c9.68,0,19.67,1.18,29.7,3.52c17.7,4.12,34.76,12.53,50.74,25
				c9.08,7.09,15.78,13.8,21.08,21.11c14.68,20.23,18.58,43.88,11.61,70.28c-2.56,9.69-7.36,18.34-14.68,26.44
				c-9.73,10.77-20.66,16.01-33.41,16.01c-1.62,0-3.29-0.09-4.97-0.26c-8.94-0.93-17.24-4.97-25.4-12.35
				c-9.56-8.65-21.57-13.41-33.82-13.41c-11.91,0-23.64,4.54-33.01,12.78c-4.61,4.05-10.8,9.01-17.8,11.38
				C68.94,167.42,64.05,168.28,59.37,168.28z"/>
			<path class="st34" d="M123.85,9.25c9.37,0,19.06,1.15,28.79,3.41c17.12,3.99,33.67,12.15,49.18,24.26
				c8.78,6.85,15.23,13.31,20.31,20.31c6.98,9.62,11.44,20.1,13.26,31.15c1.83,11.09,1.06,23.12-2.28,35.77
				c-2.39,9.06-6.9,17.17-13.78,24.78c-8.93,9.88-18.88,14.69-30.44,14.69c-1.48,0-3.01-0.08-4.55-0.24
				c-8.06-0.84-15.63-4.55-23.13-11.33c-10.29-9.31-23.26-14.44-36.5-14.44c-12.88,0-25.55,4.89-35.65,13.77
				c-4.33,3.81-10.12,8.45-16.44,10.59c-4.55,1.54-9.01,2.32-13.25,2.32c-9.28,0-17.83-3.6-26.14-11.01
				c-9.86-8.79-16.76-22-19.44-37.19c-2.7-15.36-0.84-31.34,5.24-44.98c2.53-5.66,5.9-11.08,10.6-17.04
				c6.12-7.55,13.85-14.62,22.97-21.01C75.17,17.26,99.14,9.25,123.85,9.25C123.85,9.25,123.85,9.25,123.85,9.25 M123.85,1.25
				c-26.34,0-51.65,8.33-75.84,25.26c-9.18,6.43-17.73,14.04-24.63,22.56c-5.27,6.67-8.89,12.57-11.66,18.77
				c-13.89,31.13-7.01,70.73,16.18,91.4c9.82,8.75,20.35,13.04,31.47,13.04c5.15,0,10.43-0.92,15.82-2.75
				c7.03-2.38,13.2-6.93,19.15-12.16c8.96-7.87,19.67-11.78,30.37-11.78c11.02,0,22.03,4.14,31.14,12.38
				c8.3,7.51,17.44,12.3,27.67,13.36c1.82,0.19,3.61,0.28,5.38,0.28c13.59,0,25.79-5.6,36.38-17.33c6.99-7.74,12.6-16.83,15.57-28.1
				c7.27-27.53,3.31-52.21-12.24-73.65c-6.35-8.75-13.9-15.7-21.86-21.91c-16.18-12.63-33.59-21.39-52.29-25.75
				C144.1,2.46,133.9,1.25,123.85,1.25L123.85,1.25z"/>
		</g>
		<path class="st35" d="M178.21,127.56C160.3,108.68,140.97,98.84,122.25,99c-18.72-0.16-38.05,9.68-55.96,28.56"/>
	</g>
	<g>
		<path class="st36" d="M26,56.67C33.92,44,45.42,36.57,54.36,30.31c32.55-22.77,64-27.15,100.53-18.62
			c35.86,7.71,64.31,37.07,70.7,48.09l-29.44-15.02c-44.64-16.74-93.82-17.52-139.24-2.21L26,56.67z"/>
	</g>
	<path class="st34" d="M180.52,127.22c-17.91-18.88-37.25-28.72-55.96-28.56c-18.72-0.16-38.05,9.68-55.96,28.56l14.9-3.84
		c26.7-6.88,54.7-6.93,81.42-0.13L180.52,127.22z"/>
</g>
</svg>
