<?xml version="1.0" encoding="UTF-8"?>
<svg id="Layer_1" data-name="Layer 1" xmlns="http://www.w3.org/2000/svg" viewBox="0 0 179.5 179.5">
  <defs>
    <style>
      .cls-1 {
        fill: #008faa;
      }
    </style>
  </defs>
  <path class="cls-1" d="m89.8,0C40.2,0,0,40.2,0,89.8s40.2,89.8,89.8,89.8,89.8-40.2,89.8-89.8S139.3,0,89.8,0Zm40.5,99.6h-31.7v31.7c0,4.8-3.9,8.8-8.8,8.8s-8.8-3.9-8.8-8.8v-31.7h-31.7c-4.8,0-8.8-3.9-8.8-8.8s3.9-8.8,8.8-8.8h31.7v-31.7c0-4.8,3.9-8.8,8.8-8.8s8.8,3.9,8.8,8.8v31.7h31.7c4.8,0,8.8,3.9,8.8,8.8s-3.9,8.8-8.8,8.8Z"/>
</svg>