<?xml version="1.0" encoding="UTF-8"?>
<svg id="LandingPage-Backgorund" xmlns="http://www.w3.org/2000/svg" viewBox="0 0 1255 518.8">
  <defs>
    <style>
      .cls-1 {
        opacity: .7;
      }

      .cls-2 {
        fill: #e0fbfc;
      }

      .cls-3 {
        fill: #008faa;
      }
    </style>
  </defs>
  <g class="cls-1">
    <path class="cls-2" d="m909,84.9c-.3-38.6-32.3-69.5-70.9-69.5h-296.1c-38.2,0-70.2,30.3-71,68.5,0,1,0,2.1,0,3.1.4,16.7-13,30.4-29.7,30.4h-159.4c-38.6,0-70.6,30.9-70.9,69.5-.3,38.9,31.2,70.5,70,70.5h69.8c37.7,0,68.6,30.6,68.2,68.3,0,.6,0,1.1,0,1.7.5,38.4,32.5,69,71,69h296.2c38.6,0,70.6-30.9,70.9-69.5.3-38.9-31.2-70.5-70-70.5h-86.7c-27.7,0-50.9-21.9-51.3-49.6-.5-28.3,22.3-51.4,50.5-51.4h139.5c38.8,0,70.3-31.6,70-70.5Z"/>
    <circle class="cls-2" cx="1014" cy="85.4" r="70"/>
    <circle class="cls-2" cx="110.5" cy="182.9" r="50.5"/>
    <circle class="cls-2" cx="944.5" cy="344.9" r="50.5"/>
  </g>
  <g>
    <path class="cls-3" d="m653.7,282.4h-32.2c-12.2,0-22.2-9.9-22.2-22.2v-32.2c0-12.2,9.9-22.2,22.2-22.2h32.2c12.2,0,22.2,9.9,22.2,22.2v32.2c0,12.2-9.9,22.2-22.2,22.2Zm-32.2-68.5c-7.8,0-14.2,6.4-14.2,14.2v32.2c0,7.8,6.4,14.2,14.2,14.2h32.2c7.8,0,14.2-6.4,14.2-14.2v-32.2c0-7.8-6.4-14.2-14.2-14.2h-32.2Z"/>
    <path class="cls-3" d="m702.8,322.5c-6.4,0-12.7-2.5-17.4-7.3-6.6-6.6-8.8-16.3-5.8-25.2,1.5-4.4,4.4-8.4,8.5-11.6h0s40.7-31.3,40.7-31.3c5.3-4.1,12.9-3.6,17.7,1.2l6.4,6.4c4.7,4.8,5.2,12.4,1,17.7l-31.6,40.4c-3.2,4-7.2,6.9-11.6,8.4-2.5.8-5.1,1.2-7.7,1.2Zm-9.9-37.7h0c-2.8,2.2-4.8,4.8-5.8,7.8-2,6-.5,12.5,3.9,17,4.4,4.5,10.9,6.1,16.9,4.1,2.9-1,5.7-2.9,7.8-5.7l31.6-40.4c1.7-2.1,1.5-5.2-.4-7.1l-6.4-6.4c-1.9-1.9-5-2.1-7.1-.5l-40.7,31.3Z"/>
    <path class="cls-3" d="m556.5,404c-3.4,0-6.8-1.3-9.4-3.9l-6.4-6.4c-4.8-4.7-5.3-12.3-1.2-17.7,0,0,0,0,0-.1l52.2-62.6c2.6-3.3,5.8-6,9.4-7.6,1.2-.6,2.7-.5,3.8.3,1.1.7,1.8,2,1.8,3.4v51.3c0,1.1-.5,2.2-1.3,2.9l-40.6,37.3c0,0-.2.1-.2.2-2.4,1.9-5.3,2.8-8.2,2.8Zm-10.7-23c-1.6,2.1-1.4,5.2.5,7.1l6.4,6.4c1.9,1.9,4.9,2.1,7,.5l39.1-36v-41.6c-.3.3-.5.6-.8,1,0,0,0,0,0,.1l-52.2,62.6Z"/>
    <g>
      <path class="cls-3" d="m456.5,514.4c-4.3,0-8.4-1.7-11.5-4.7-6.3-6.3-6.4-16.6,0-23s16.6-6.4,23,0c3.1,3.1,4.8,7.1,4.8,11.5,0,4.3-1.7,8.4-4.7,11.5h0c-3.1,3.1-7.1,4.8-11.5,4.8h0Zm0-24.5c-2.1,0-4.2.8-5.8,2.4-3.2,3.2-3.2,8.4,0,11.7,1.6,1.6,3.6,2.4,5.8,2.4h0c2.2,0,4.3-.9,5.8-2.4h0c1.6-1.6,2.4-3.6,2.4-5.8,0-2.2-.9-4.3-2.4-5.8-1.6-1.6-3.7-2.4-5.8-2.4Z"/>
      <path class="cls-3" d="m438.4,484.1c-1.1,0-2.1-.4-2.8-1.2l-33.9-33.8c-1.6-1.6-1.6-4.1,0-5.7l70.7-70.9c1.6-1.6,4.1-1.6,5.7,0l52,51.9c.8.7,1.2,1.8,1.2,2.8,0,1.1-.4,2.1-1.2,2.8l-52.7,52.8c-1.6,1.6-4.1,1.6-5.7,0-4.1-4.1-9.5-6.3-15.2-6.3h0c-5.8,0-11.2,2.3-15.3,6.3-.7.8-1.8,1.2-2.8,1.2h0Zm-28.2-37.8l28.4,28.3c5.1-3.9,11.3-6,17.9-6.1h0c6.5,0,12.8,2.1,17.9,6l47.2-47.3-46.3-46.2-65.1,65.3Z"/>
      <path class="cls-3" d="m527.2,431.2c-.9,0-1.9-.3-2.6-1-1.7-1.4-1.8-4-.4-5.6l21.5-24.7-7.5-7.4c-1.6-1.6-1.6-4.1,0-5.7,1.6-1.6,4.1-1.6,5.7,0l10.1,10.1c1.5,1.5,1.6,3.9.2,5.5l-23.9,27.5c-.8.9-1.9,1.4-3,1.4Z"/>
    </g>
    <path class="cls-3" d="m643.4,417h-40.6c-2.2,0-4-1.8-4-4v-104.8c0-2.2,1.8-4,4-4h69.6c2.2,0,4,1.8,4,4v75.9c0,18.2-14.8,33-33,33Zm-36.6-8h36.6c13.8,0,25-11.2,25-25v-71.9h-61.6v96.8Z"/>
    <path class="cls-3" d="m700.2,518.4h0l-27.8-.2c-1.6,0-3.1-1-3.7-2.5l-40.4-101c-.8-2.1.2-4.4,2.2-5.2,2.1-.8,4.4.2,5.2,2.2l39.4,98.5,20.1.2-26.8-122.7c-.5-2.2.9-4.3,3.1-4.8,2.2-.5,4.3.9,4.8,3.1l27.8,127.5c.3,1.2,0,2.4-.8,3.4-.8.9-1.9,1.5-3.1,1.5Z"/>
    <path class="cls-3" d="m536.6,506.6c-.7,0-1.3-.2-1.9-.5-1.3-.7-2.1-2-2.1-3.5v-26.7c0-1.1.4-2.1,1.2-2.9l66.8-64.5c1.6-1.5,4.1-1.5,5.7,0,1.5,1.6,1.5,4.1,0,5.7l-65.6,63.4v17.7l98.2-62.5c1.9-1.2,4.3-.6,5.5,1.2,1.2,1.9.6,4.3-1.2,5.5l-104.4,66.4c-.7.4-1.4.6-2.1.6Z"/>
    <path class="cls-3" d="m737,518.8s0,0,0,0l-36.7-.4c-2.2,0-4-1.8-4-4,0-2.2,1.8-4,4-4s0,0,0,0l25,.3-34.3-27.2c-1.7-1.4-2-3.9-.6-5.6,1.4-1.7,3.9-2,5.6-.6l43.4,34.5c1.3,1.1,1.9,2.9,1.3,4.5-.6,1.6-2.1,2.7-3.8,2.7Z"/>
    <path class="cls-3" d="m576,518.7h-39.9c-2.2,0-4-1.8-4-4v-38.6c0-2.2,1.8-4,4-4s4,1.8,4,4v34.6h26.6l-15.5-16.4c-1.5-1.6-1.5-4.1.2-5.7,1.6-1.5,4.1-1.5,5.7.2l21.9,23.1c1.1,1.2,1.4,2.9.8,4.3-.6,1.5-2.1,2.4-3.7,2.4Z"/>
  </g>
  <g>
    <path class="cls-3" d="m276.7,518.8H56.2c-13.7,0-24.8-11.1-24.8-24.8v-120.3c0-13.6,11-24.7,24.5-24.8l220.2-32.2c.2,0,.4,0,.6,0,13.7,0,24.8,11.1,24.8,24.8v152.6c0,13.7-11.1,24.8-24.8,24.8Zm.3-194.3l-220.2,32.2c-.2,0-.4,0-.6,0-9.3,0-16.8,7.6-16.8,16.8v120.3c0,9.3,7.6,16.8,16.8,16.8h220.5c9.3,0,16.8-7.6,16.8-16.8v-152.6c0-9.2-7.4-16.7-16.6-16.8Z"/>
    <path class="cls-3" d="m85.4,351.9c-1,0-1.9-.3-2.6-1-.9-.8-1.4-1.9-1.4-3v-31.2c0-2.2,1.8-4,4-4h59c2.2,0,4,1.8,4,4v22.3c0,2-1.4,3.7-3.4,4l-59,8.9c-.2,0-.4,0-.6,0Zm4-31.2v22.5l51-7.7v-14.8h-51Z"/>
    <path class="cls-3" d="m177.8,442H35.3c-2.2,0-4-1.8-4-4v-51.9c0-2.2,1.8-4,4-4h142.5c2.2,0,4,1.8,4,4v51.9c0,2.2-1.8,4-4,4Zm-138.5-8h134.5v-43.9H39.3v43.9Z"/>
    <path class="cls-3" d="m297.8,398.6h-53.2c-2.2,0-4-1.8-4-4v-51.9c0-2.2,1.8-4,4-4l53.2-.4c1.1,0,2.1.4,2.8,1.2.8.8,1.2,1.8,1.2,2.8v52.3c0,2.2-1.8,4-4,4Zm-49.2-8h45.2v-44.3l-45.2.3v44Z"/>
    <path class="cls-3" d="m272.2,518.8h-47.5c-2.2,0-4-1.8-4-4v-60.9c0-2.2,1.8-4,4-4h47.5c2.2,0,4,1.8,4,4v60.9c0,2.2-1.8,4-4,4Zm-43.5-8h39.5v-52.9h-39.5v52.9Z"/>
    <path class="cls-3" d="m279.1,381.3c-.8,0-1.5-.3-2.1-.9-1.2-1.2-1.2-3.1,0-4.2l18.9-18.9c1.2-1.2,3.1-1.2,4.2,0s1.2,3.1,0,4.2l-18.9,18.9c-.6.6-1.4.9-2.1.9Z"/>
    <path class="cls-3" d="m80.3,425.5c-.8,0-1.5-.3-2.1-.9-1.2-1.2-1.2-3.1,0-4.2l18.9-18.9c1.2-1.2,3.1-1.2,4.2,0,1.2,1.2,1.2,3.1,0,4.2l-18.9,18.9c-.6.6-1.4.9-2.1.9Z"/>
    <path class="cls-3" d="m97.3,424.5c-.5,0-1-.2-1.4-.6-.8-.8-.8-2,0-2.8l18.9-18.9c.8-.8,2-.8,2.8,0,.8.8.8,2,0,2.8l-18.9,18.9c-.4.4-.9.6-1.4.6Z"/>
    <path class="cls-3" d="m260.2,379.2c-.5,0-1-.2-1.4-.6-.8-.8-.8-2,0-2.8l18.9-18.9c.8-.8,2-.8,2.8,0,.8.8.8,2,0,2.8l-18.9,18.9c-.4.4-.9.6-1.4.6Z"/>
  </g>
  <path class="cls-3" d="m1251,518.6H4C1.8,518.5,0,516.7,0,514.5c0-2.2,1.8-4,4-4h1247c2.2,0,4,1.9,4,4.1s-1.8,4-4,4Z"/>
  <g>
    <path class="cls-3" d="m1212.1,405.9h-249.1c-2.2,0-4-1.8-4-4v-62.5c0-2.2,1.8-4,4-4h249.1c2.2,0,4,1.8,4,4v62.5c0,2.2-1.8,4-4,4Zm-245.1-8h241.1v-54.5h-241.1v54.5Z"/>
    <path class="cls-3" d="m1218.7,343.4h-262.2c-2.2,0-4-1.8-4-4v-62.5c0-2.2,1.8-4,4-4h262.2c2.2,0,4,1.8,4,4v62.5c0,2.2-1.8,4-4,4Zm-258.2-8h254.2v-54.5h-254.2v54.5Z"/>
    <path class="cls-3" d="m1212.1,281h-249.1c-2.2,0-4-1.8-4-4v-62.5c0-2.2,1.8-4,4-4h249.1c2.2,0,4,1.8,4,4v62.5c0,2.2-1.8,4-4,4Zm-245.1-8h241.1v-54.5h-241.1v54.5Z"/>
    <path class="cls-3" d="m1218.7,218.5h-262.2c-2.2,0-4-1.8-4-4v-62.5c0-2.2,1.8-4,4-4h262.2c2.2,0,4,1.8,4,4v62.5c0,2.2-1.8,4-4,4Zm-258.2-8h254.2v-54.5h-254.2v54.5Z"/>
    <path class="cls-3" d="m1212.1,156.1h-249.1c-2.2,0-4-1.8-4-4v-62.5c0-2.2,1.8-4,4-4h249.1c2.2,0,4,1.8,4,4v62.5c0,2.2-1.8,4-4,4Zm-245.1-8h241.1v-54.5h-241.1v54.5Z"/>
    <path class="cls-3" d="m1218.7,93.6h-262.2c-2.2,0-4-1.8-4-4v-44.7c0-10.4,8.4-18.8,18.8-18.8h232.5c10.4,0,18.8,8.4,18.8,18.8v44.7c0,2.2-1.8,4-4,4Zm-258.2-8h254.2v-40.7c0-6-4.9-10.8-10.8-10.8h-232.5c-6,0-10.8,4.9-10.8,10.8v40.7Z"/>
    <path class="cls-3" d="m1203.8,518.8h-232.5c-10.4,0-18.8-8.4-18.8-18.8v-98.1c0-2.2,1.8-4,4-4h262.2c2.2,0,4,1.8,4,4v98.1c0,10.4-8.4,18.8-18.8,18.8Zm-243.3-112.9v94.1c0,6,4.9,10.8,10.8,10.8h232.5c6,0,10.8-4.9,10.8-10.8v-94.1h-254.2Z"/>
    <path class="cls-3" d="m1038.1,156.1c-2.2,0-4-1.8-4-4v-62.5c0-2.2,1.8-4,4-4s4,1.8,4,4v62.5c0,2.2-1.8,4-4,4Z"/>
    <path class="cls-3" d="m1004.7,156.1c-2.2,0-4-1.8-4-4v-62.5c0-2.2,1.8-4,4-4s4,1.8,4,4v62.5c0,2.2-1.8,4-4,4Z"/>
    <path class="cls-3" d="m1140.2,156.1c-2.2,0-4-1.8-4-4v-62.5c0-2.2,1.8-4,4-4s4,1.8,4,4v62.5c0,2.2-1.8,4-4,4Z"/>
    <path class="cls-3" d="m1172.5,156.1c-2.2,0-4-1.8-4-4v-62.5c0-2.2,1.8-4,4-4s4,1.8,4,4v62.5c0,2.2-1.8,4-4,4Z"/>
    <path class="cls-3" d="m1172.5,280.7c-2.2,0-4-1.8-4-4v-62.5c0-2.2,1.8-4,4-4s4,1.8,4,4v62.5c0,2.2-1.8,4-4,4Z"/>
    <path class="cls-3" d="m1087.9,280.7c-2.2,0-4-1.8-4-4v-62.5c0-2.2,1.8-4,4-4s4,1.8,4,4v62.5c0,2.2-1.8,4-4,4Z"/>
    <path class="cls-3" d="m1087.9,405.4c-2.2,0-4-1.8-4-4v-62.5c0-2.2,1.8-4,4-4s4,1.8,4,4v62.5c0,2.2-1.8,4-4,4Z"/>
    <path class="cls-3" d="m1087.9,156.1c-2.2,0-4-1.8-4-4v-62.5c0-2.2,1.8-4,4-4s4,1.8,4,4v62.5c0,2.2-1.8,4-4,4Z"/>
    <path class="cls-3" d="m1038.1,281.2c-2.2,0-4-1.8-4-4v-62.5c0-2.2,1.8-4,4-4s4,1.8,4,4v62.5c0,2.2-1.8,4-4,4Z"/>
    <path class="cls-3" d="m1004.7,281.2c-2.2,0-4-1.8-4-4v-62.5c0-2.2,1.8-4,4-4s4,1.8,4,4v62.5c0,2.2-1.8,4-4,4Z"/>
    <path class="cls-3" d="m1172.5,405.4c-2.2,0-4-1.8-4-4v-62.5c0-2.2,1.8-4,4-4s4,1.8,4,4v62.5c0,2.2-1.8,4-4,4Z"/>
    <path class="cls-3" d="m1004.7,405.9c-2.2,0-4-1.8-4-4v-62.5c0-2.2,1.8-4,4-4s4,1.8,4,4v62.5c0,2.2-1.8,4-4,4Z"/>
    <path class="cls-3" d="m1140.2,281.2c-2.2,0-4-1.8-4-4v-62.5c0-2.2,1.8-4,4-4s4,1.8,4,4v62.5c0,2.2-1.8,4-4,4Z"/>
    <path class="cls-3" d="m1038.1,405.6c-2.2,0-4-1.8-4-4v-62.5c0-2.2,1.8-4,4-4s4,1.8,4,4v62.5c0,2.2-1.8,4-4,4Z"/>
    <path class="cls-3" d="m1140.2,405.6c-2.2,0-4-1.8-4-4v-62.5c0-2.2,1.8-4,4-4s4,1.8,4,4v62.5c0,2.2-1.8,4-4,4Z"/>
    <path class="cls-3" d="m1192.5,34.1h-30.1c-2.2,0-4-1.8-4-4V4c0-2.2,1.8-4,4-4h30.1c2.2,0,4,1.8,4,4v26.1c0,2.2-1.8,4-4,4Zm-26.1-8h22.1V8h-22.1v18.1Z"/>
    <path class="cls-3" d="m1141.3,34.1h-30.1c-2.2,0-4-1.8-4-4V4c0-2.2,1.8-4,4-4h30.1c2.2,0,4,1.8,4,4v26.1c0,2.2-1.8,4-4,4Zm-26.1-8h22.1V8h-22.1v18.1Z"/>
    <path class="cls-3" d="m1116.5,518.8h-53.9c-2.2,0-4-1.8-4-4v-53.9c0-2.2,1.8-4,4-4h53.9c2.2,0,4,1.8,4,4v53.9c0,2.2-1.8,4-4,4Zm-49.9-8h45.9v-45.9h-45.9v45.9Z"/>
    <path class="cls-3" d="m1121.2,258.5c-.8,0-1.5-.3-2.1-.9-1.2-1.2-1.2-3.1,0-4.2l18.9-18.9c1.2-1.2,3.1-1.2,4.2,0,1.2,1.2,1.2,3.1,0,4.2l-18.9,18.9c-.6.6-1.4.9-2.1.9Z"/>
    <path class="cls-3" d="m1102.3,256.4c-.5,0-1-.2-1.4-.6-.8-.8-.8-2,0-2.8l18.9-18.9c.8-.8,2-.8,2.8,0,.8.8.8,2,0,2.8l-18.9,18.9c-.4.4-.9.6-1.4.6Z"/>
    <path class="cls-3" d="m1121.2,132.8c-.8,0-1.5-.3-2.1-.9-1.2-1.2-1.2-3.1,0-4.2l18.9-18.9c1.2-1.2,3.1-1.2,4.2,0s1.2,3.1,0,4.2l-18.9,18.9c-.6.6-1.4.9-2.1.9Z"/>
    <path class="cls-3" d="m1102.3,130.6c-.5,0-1-.2-1.4-.6-.8-.8-.8-2,0-2.8l18.9-18.9c.8-.8,2-.8,2.8,0,.8.8.8,2,0,2.8l-18.9,18.9c-.4.4-.9.6-1.4.6Z"/>
    <path class="cls-3" d="m1121.2,383.2c-.8,0-1.5-.3-2.1-.9-1.2-1.2-1.2-3.1,0-4.2l18.9-18.9c1.2-1.2,3.1-1.2,4.2,0,1.2,1.2,1.2,3.1,0,4.2l-18.9,18.9c-.6.6-1.4.9-2.1.9Z"/>
    <path class="cls-3" d="m1102.3,381.1c-.5,0-1-.2-1.4-.6-.8-.8-.8-2,0-2.8l18.9-18.9c.8-.8,2-.8,2.8,0,.8.8.8,2,0,2.8l-18.9,18.9c-.4.4-.9.6-1.4.6Z"/>
    <path class="cls-3" d="m1089.6,516.8c-1.1,0-2-.9-2-2v-53.9c0-1.1.9-2,2-2s2,.9,2,2v53.9c0,1.1-.9,2-2,2Z"/>
  </g>
</svg>