<?xml version="1.0" encoding="UTF-8"?>
<svg id="Layer_1" data-name="Layer 1" xmlns="http://www.w3.org/2000/svg" viewBox="0 0 1294 364">
  <defs>
    <style>
      .cls-1, .cls-2 {
        fill: #fff;
      }

      .cls-3, .cls-4, .cls-2 {
        opacity: .1;
      }

      .cls-3, .cls-5 {
        fill: #008faa;
      }

      .cls-6 {
        fill: none;
      }
    </style>
  </defs>
  <rect class="cls-5" width="1294" height="364"/>
  <g>
    <rect class="cls-3" x="29.8" y="103.7" width="152.9" height="72" transform="translate(-26.7 25.2) rotate(-12)"/>
    <rect class="cls-3" x="51.2" y="225.5" width="221.3" height="21.6" transform="translate(-45.6 38.8) rotate(-12)"/>
    <g class="cls-4">
      <path class="cls-1" d="m266.3,195.7l-59.8,12.7-10.9-51-15-70.4c-.8-3.9-4.6-6.4-8.5-5.5L22.5,113.3c-3.9.8-6.4,4.6-5.5,8.5l15,70.4,12.3,58.1,4.5,21.1,17.1,80.5c.8,3.9,4.6,6.4,8.5,5.5,3.9-.8,6.4-4.6,5.5-8.5l-15.6-73.4,105.6-22.5,15.6,73.4c.8,3.9,4.6,6.4,8.5,5.5s6.4-4.6,5.5-8.5l-15.6-73.4,15.8-3.4,15.6,73.4c.8,3.9,4.6,6.4,8.5,5.5,3.9-.8,6.4-4.6,5.5-8.5l-15.6-73.4,52.8-11.2,15.6,73.4c.8,3.9,4.6,6.4,8.5,5.5,3.9-.8,6.4-4.6,5.5-8.5l-17.1-80.5-4.5-21.1c-.8-3.9-4.6-6.4-8.5-5.5Zm-218.8.5l135.5-28.8,9.4,44-135.5,28.8-9.4-44Zm-15-70.4l135.5-28.8,12,56.3-135.5,28.8-12-56.3Zm28.8,135.5l-1.5-7,135.5-28.8,1.5,7-135.5,28.8Zm148.1-38.8l52.8-11.2,1.5,7-52.8,11.2-1.5-7Z"/>
      <circle class="cls-1" cx="150.8" cy="128.3" r="7.2"/>
      <circle class="cls-1" cx="64.6" cy="146.7" r="7.2"/>
    </g>
  </g>
  <g>
    <path class="cls-3" d="m1294,85.3v244.7l-22.1,34h-73.9l-175.9-114.2c-6.7-4.3-8.5-13.2-4.2-19.9l80.5-123.9,27.5-42.4,32.1-49.5c4.3-6.7,13.2-8.6,19.9-4.2l116.1,75.4Z"/>
    <line class="cls-6" x1="1294" y1="172.8" x2="1125.9" y2="63.6"/>
    <line class="cls-6" x1="1294" y1="233" x2="1098.4" y2="106"/>
    <path class="cls-2" d="m1280.5,364l13.5-20.8v-26.4l-30.7,47.2h17.2ZM1191.5,10.1c-15.3-9.9-35.8-5.6-45.7,9.7l-127.6,196.5c-9.9,15.3-5.6,35.8,9.7,45.7l156.9,101.9h26.4l-175.5-114c-8.6-5.6-11.1-17.2-5.5-25.8l70.3-108.2,193.5,125.6v-17.2l-185.7-120.5,19.7-30.3,166,107.8v-17.2l-41.2-26.8,32.1-49.5,9.1,5.9v-17.2l-102.5-66.6Zm55.3,123.4l-110.9-72,22-33.8c5.6-8.6,17.2-11.1,25.8-5.5l95.2,61.8-32.1,49.5Z"/>
  </g>
  <g>
    <path class="cls-3" d="m749.9,275.4l-57.5,88.6h-175.2l-106.8-69.4-75.9-49.3c-2.7-1.7-3.4-5.3-1.7-8l106.4-163.8c1.7-2.7,5.3-3.5,8-1.7l301.1,195.5c2.7,1.7,3.4,5.3,1.7,8Z"/>
    <polygon class="cls-3" points="517.1 364 454.4 364 391.7 323.3 410.3 294.6 517.1 364"/>
    <path class="cls-2" d="m706,267.8l-242.1-157.2c-6.5-4.2-15.2-2.4-19.4,4.1l-71.9,110.8c-4.2,6.5-2.4,15.2,4.1,19.4l183.4,119.1h13.2l-192.7-125.1c-3.2-2-4-6.3-2-9.4l71.9-110.8c2-3.2,6.3-4,9.4-2l242.1,157.2c3.2,2.1,4.1,6.3,2,9.4l-52.4,80.7h8.6l49.9-76.8c4.2-6.5,2.4-15.2-4.1-19.4Z"/>
    <path class="cls-2" d="m748.3,258.8L454.9,68.3c-8.1-5.3-19.1-3-24.4,5.2l-101.3,156c-5.3,8.1-3,19.1,5.2,24.4l66,42.8-14.7,22.6c-2.2,3.3-1.2,7.8,2.1,10l53.4,34.7h26.4l-65.9-42.8,10.8-16.6,91.5,59.4h26.4l-116.1-75.4-72-46.7c-1.5-1-1.9-3-1-4.5l101.3-156.1c1-1.5,3-1.9,4.5-.9l293.4,190.5c1.5,1,1.9,3,1,4.5l-57.6,88.7h17.2l52.5-80.8c5.3-8.1,3-19.1-5.2-24.3Z"/>
  </g>
  <g>
    <path class="cls-3" d="m365.3,0l-42.2,65c-4.3,6.6-13.1,8.5-19.7,4.2l-16.4-10.6c-6.6-4.3-8.5-13.1-4.2-19.7L308.1,0h57.2Z"/>
    <path class="cls-2" d="m356.6,0l2.7,1.8-35.9,55.4-33.5-21.8L312.8,0h-9.6l-23.8,36.7c-5.5,8.4-3.1,19.8,5.4,25.2l16.4,10.6c8.4,5.5,19.8,3.1,25.2-5.4L368.7,2.1c.5-.7.9-1.4,1.2-2.1h-13.2Zm-35.4,60.5l-1.5,2.3c-3.1,4.7-9.4,6.1-14.2,3l-16.4-10.6c-4.7-3.1-6.1-9.4-3-14.2l1.5-2.3,33.5,21.8Z"/>
    <g class="cls-4">
      <circle class="cls-1" cx="300.7" cy="55.5" r="4"/>
    </g>
  </g>
  <g>
    <path class="cls-3" d="m993.8,353.1l-7.1,10.9h-108.5l-71.7-46.5c-6.6-4.3-8.5-13.1-4.2-19.7l31.5-48.5c4.3-6.6,13.1-8.5,19.7-4.2l136.1,88.3c6.6,4.3,8.5,13.1,4.2,19.7Z"/>
    <path class="cls-2" d="m984,321.1l-117-76c-15.2-9.8-35.5-5.5-45.4,9.7l-19.1,29.5c-9.9,15.2-5.5,35.5,9.6,45.4l52.9,34.3h26.4l-61.2-39.8,39.2-60.3,99.6,64.6-23,35.5h8.6l20.5-31.5,1.1.8c8.5,5.5,11,17,5.4,25.5l-3.5,5.3h17c7.9-14.8,3.2-33.5-11.1-42.9Zm-159.8-.8l-4.2-2.7c-8.5-5.5-10.9-17-5.4-25.5l19.1-29.5c5.5-8.5,16.9-10.9,25.5-5.4l4.2,2.7-39.2,60.4Z"/>
    <g class="cls-4">
      <circle class="cls-1" cx="833.2" cy="283.3" r="7.2"/>
    </g>
    <g class="cls-4">
      <path class="cls-1" d="m970.1,364h-11.2c2.3-2.9,6.4-3.5,9.5-1.5.7.4,1.2.9,1.7,1.5Z"/>
    </g>
  </g>
  <g class="cls-4">
    <path class="cls-1" d="m794.4,34.8l-1-4.9c-3.1-14.7-14.1-25.8-27.5-29.9h-23.6l-1.1.2c-21.5,4.6-35.3,25.8-30.7,47.3l1,4.9c4.6,21.5,25.8,35.3,47.3,30.7l4.9-1c21.5-4.6,35.3-25.8,30.7-47.3Zm-33.7,33.2l-4.9,1c-13.7,2.9-27.3-5.9-30.2-19.6l-1.1-4.9c-2.9-13.7,5.9-27.3,19.6-30.2l4.9-1c13.7-2.9,27.3,5.9,30.2,19.6l1,4.9c2.9,13.7-5.9,27.3-19.6,30.2Z"/>
    <path class="cls-1" d="m795.8,216.5l-10.4,2.2c-20.6,4.4-41-8.8-45.4-29.5l-15.9-74.9c-.8-3.9,1.7-7.7,5.5-8.5l69.8-14.9c3.9-.8,7.7,1.7,8.5,5.5l16.2,76.2c4.2,19.9-8.5,39.6-28.5,43.8Zm-56.1-98.1l14.4,67.9c2.7,12.9,15.4,21.1,28.3,18.4l10.4-2.2c12.2-2.6,20-14.6,17.4-26.7l-14.7-69.1-55.8,11.9Z"/>
    <path class="cls-1" d="m907.3,8.2c-.6-2.9-1.5-5.6-2.6-8.2h-16.6c2.5,3.2,4.3,7,5.2,11.2,3.2,15.1-6.5,30-21.6,33.2-15.1,3.2-30-6.5-33.2-21.6-1.8-8.3.4-16.6,5.2-22.8h-16.6c-3.5,7.9-4.6,16.8-2.7,25.8,4.9,22.9,27.4,37.5,50.3,32.6,22.9-4.9,37.5-27.4,32.6-50.3Z"/>
    <path class="cls-1" d="m937.4,186.4l-63.9,13.6c-9.1,1.9-18.5-.3-25.7-6.2-7.2-5.9-11.3-14.7-11.2-24,0-.2,0-.5,0-.7l9.3-83c.3-3.1,2.6-5.6,5.7-6.2l54.5-11.6c3-.6,6,.7,7.6,3.2l44.1,70.5c.1.2.2.3.3.5,4.4,8.6,4.6,18.5.5,27.2-4.1,8.7-11.9,14.9-21.3,16.9Zm-86.4-16.2c0,4.8,2.2,9.3,5.9,12.4,3.8,3.1,8.8,4.3,13.6,3.3l63.9-13.6c5-1.1,9.1-4.3,11.3-8.9,2.1-4.5,2.1-9.7-.2-14.2l-41.3-66-44.5,9.5-8.7,77.5Z"/>
    <path class="cls-5" d="m730,115l38,30.1c8,6.4,9.3,18,3,26l-4.1,5.2c-6.6,8.4-18.8,9.8-27.2,3.1l-37.3-29.6,27.6-34.8Z"/>
    <path class="cls-1" d="m757.2,190.2c-.8.2-1.7.3-2.5.4-7,.8-14-1.2-19.5-5.6l-37.3-29.6c-1.5-1.2-2.5-2.9-2.7-4.8-.2-1.9.3-3.8,1.5-5.3l27.6-34.8c2.5-3.1,7-3.6,10.1-1.2l38,30.1c5.4,4.3,8.8,10.4,9.6,17.2.8,6.8-1.1,13.5-5.4,18.9l-4.1,5.2c-3.9,4.9-9.2,8.2-15.2,9.4Zm-44.8-41.6l31.7,25.2c2.5,2,5.7,2.9,8.9,2.6,3.2-.4,6.1-2,8.1-4.5l4.1-5.2c1.9-2.4,2.7-5.3,2.4-8.3s-1.8-5.7-4.2-7.6l-32.3-25.7-18.7,23.5Z"/>
    <rect class="cls-5" x="686.5" y="103.8" width="43.8" height="43.8" rx="12.2" ry="12.2" transform="translate(169.4 602.2) rotate(-51.5)"/>
    <path class="cls-1" d="m714.4,154.1c-8.2,1.7-17.1,0-24.2-5.7-6.1-4.8-9.9-11.7-10.8-19.5-.9-7.7,1.3-15.3,6.1-21.4h0c10-12.6,28.3-14.7,40.9-4.7,12.6,10,14.7,28.3,4.7,40.9-4.4,5.5-10.3,9-16.7,10.3Zm-17.6-37.6h0c-5,6.3-4,15.6,2.4,20.7,6.3,5,15.6,4,20.7-2.4,5-6.3,4-15.6-2.4-20.7-6.3-5-15.6-4-20.7,2.4Z"/>
    <rect class="cls-5" x="940.1" y="105.6" width="44.4" height="67" transform="translate(-7.9 203.2) rotate(-12)"/>
    <path class="cls-1" d="m992.5,174.3l-43.5,9.2c-3.9.8-7.7-1.7-8.5-5.5l-13.9-65.5c-.8-3.9,1.7-7.7,5.5-8.5l43.5-9.2c3.9-.8,7.7,1.7,8.5,5.5l13.9,65.5c.8,3.9-1.7,7.7-5.5,8.5Zm-39.4-6.3l29.4-6.2-10.9-51.4-29.4,6.2,10.9,51.4Z"/>
    <rect class="cls-5" x="924.5" y="39.6" width="43.8" height="43.8" rx="12.2" ry="12.2" transform="translate(7.9 198.2) rotate(-12)"/>
    <path class="cls-1" d="m952.5,90c-15.7,3.3-31.2-6.7-34.5-22.4s6.7-31.2,22.4-34.5c15.7-3.3,31.2,6.7,34.5,22.4,3.3,15.7-6.7,31.2-22.4,34.5Zm-9.1-42.8c-7.9,1.7-13,9.5-11.3,17.4s9.5,13,17.4,11.3c7.9-1.7,13-9.5,11.3-17.4-1.7-7.9-9.5-13-17.4-11.3Z"/>
  </g>
</svg>