<?xml version="1.0" encoding="UTF-8"?>
<svg id="Layer_1" data-name="Layer 1" xmlns="http://www.w3.org/2000/svg" xmlns:xlink="http://www.w3.org/1999/xlink" viewBox="0 0 1403 851.8">
  <defs>
    <style>
      .cls-1, .cls-2 {
        fill: #fff;
      }

      .cls-3, .cls-4, .cls-2 {
        opacity: .1;
      }

      .cls-3, .cls-5 {
        fill: #008faa;
      }

      .cls-6 {
        clip-path: url(#clippath);
      }

      .cls-7 {
        fill: none;
      }
    </style>
    <clipPath id="clippath">
      <rect class="cls-7" y="404.5" width="1294" height="364"/>
    </clipPath>
  </defs>
  <rect class="cls-5" y="404.5" width="1294" height="364"/>
  <g class="cls-6">
    <g>
      <rect class="cls-3" x="29.8" y="508.2" width="152.9" height="72" transform="translate(-110.9 34) rotate(-12)"/>
      <rect class="cls-3" x="51.2" y="630.1" width="221.3" height="21.6" transform="translate(-129.8 47.7) rotate(-12)"/>
      <g class="cls-4">
        <path class="cls-1" d="m266.3,600.3l-59.8,12.7-10.9-51-15-70.4c-.8-3.9-4.6-6.4-8.5-5.5l-149.6,31.8c-3.9.8-6.4,4.6-5.5,8.5l15,70.4,12.3,58.1,4.5,21.1,17.1,80.5c.8,3.9,4.6,6.4,8.5,5.5,3.9-.8,6.4-4.6,5.5-8.5l-15.6-73.4,105.6-22.5,15.6,73.4c.8,3.9,4.6,6.4,8.5,5.5s6.4-4.6,5.5-8.5l-15.6-73.4,15.8-3.4,15.6,73.4c.8,3.9,4.6,6.4,8.5,5.5,3.9-.8,6.4-4.6,5.5-8.5l-15.6-73.4,52.8-11.2,15.6,73.4c.8,3.9,4.6,6.4,8.5,5.5,3.9-.8,6.4-4.6,5.5-8.5l-17.1-80.5-4.5-21.1c-.8-3.9-4.6-6.4-8.5-5.5Zm-218.8.5l135.5-28.8,9.4,44-135.5,28.8-9.4-44Zm-15-70.4l135.5-28.8,12,56.3-135.5,28.8-12-56.3Zm28.8,135.5l-1.5-7,135.5-28.8,1.5,7-135.5,28.8Zm148.1-38.8l52.8-11.2,1.5,7-52.8,11.2-1.5-7Z"/>
        <circle class="cls-1" cx="150.8" cy="532.9" r="7.2"/>
        <circle class="cls-1" cx="64.6" cy="551.2" r="7.2"/>
      </g>
    </g>
    <g>
      <rect class="cls-3" x="1064.9" y="461.4" width="286" height="286" rx="14.4" ry="14.4" transform="translate(524 -560.3) rotate(33)"/>
      <line class="cls-2" x1="1125.9" y1="468.2" x2="1365.8" y2="623.9"/>
      <line class="cls-2" x1="1098.4" y1="510.5" x2="1338.3" y2="666.3"/>
      <path class="cls-2" d="m1027.9,666.7l196.5,127.6c15.3,9.9,35.8,5.6,45.7-9.7l127.6-196.5c9.9-15.3,5.6-35.8-9.7-45.7l-196.5-127.6c-15.3-9.9-35.8-5.6-45.7,9.7l-127.6,196.5c-9.9,15.3-5.6,35.8,9.7,45.7Zm328-40.6l-19.7,30.3-227.8-147.9,19.7-30.3,227.8,147.9Zm-123.6,156.1l-196.5-127.6c-8.6-5.6-11.1-17.2-5.5-25.8l70.3-108.3,227.8,147.9-70.3,108.3c-5.6,8.6-17.2,11.1-25.8,5.5Zm153.4-202l-21.9,33.8-110.9-72,32.1-49.5,95.2,61.8c8.6,5.6,11.1,17.2,5.5,25.8Zm-202-153.4l95.2,61.8-32.1,49.5-110.9-72,21.9-33.8c5.6-8.6,17.2-11.1,25.8-5.5Z"/>
    </g>
    <g>
      <rect class="cls-3" x="356" y="557.5" width="370.6" height="206.9" rx="5.8" ry="5.8" transform="translate(447.2 -188.2) rotate(33)"/>
      <rect class="cls-3" x="386.6" y="744.9" width="178.1" height="34.2" transform="translate(491.7 -136.1) rotate(33)"/>
      <path class="cls-2" d="m638.1,802.5l71.9-110.8c4.2-6.5,2.4-15.2-4.1-19.4l-242.1-157.2c-6.5-4.2-15.2-2.4-19.4,4.1l-71.9,110.8c-4.2,6.5-2.4,15.2,4.1,19.4l242.1,157.2c6.5,4.2,15.2,2.4,19.4-4.1Zm-259.5-168.5l71.9-110.8c2-3.2,6.3-4.1,9.4-2l242.1,157.2c3.2,2,4.1,6.3,2,9.4l-71.9,110.8c-2,3.2-6.3,4.1-9.4,2l-242.1-157.2c-3.2-2-4.1-6.3-2-9.4Z"/>
      <path class="cls-2" d="m561.8,806.1l66,42.8c8.1,5.3,19.1,3,24.4-5.2l101.3-156.1c5.3-8.1,3-19.1-5.2-24.4l-293.4-190.5c-8.1-5.3-19.1-3-24.4,5.2l-101.3,156.1c-5.3,8.1-3,19.1,5.2,24.4l66,42.8-14.7,22.6c-2.2,3.3-1.2,7.8,2.1,10l149.4,97c3.3,2.2,7.8,1.2,10-2.1l14.7-22.6Zm-220.5-164.2l101.3-156.1c1-1.5,3-1.9,4.4-.9l293.4,190.5c1.5,1,1.9,3,.9,4.4l-101.3,156.1c-1,1.5-3,1.9-4.4.9l-72-46.7-149.4-97-72-46.7c-1.5-1-1.9-3-.9-4.4Zm197.7,172.9l-137.3-89.1,10.8-16.6,137.3,89.1-10.8,16.6Z"/>
    </g>
    <g>
      <rect class="cls-3" x="271.1" y="400" width="106" height="48" rx="14.2" ry="14.2" transform="translate(856.1 383) rotate(123)"/>
      <path class="cls-2" d="m326.5,471.7l42.2-65c5.5-8.4,3.1-19.7-5.4-25.2l-16.4-10.6c-8.4-5.5-19.7-3.1-25.2,5.4l-42.2,65c-5.5,8.4-3.1,19.7,5.4,25.2l16.4,10.6c8.4,5.5,19.7,3.1,25.2-5.4Zm-3-10l-33.6-21.8,35.9-55.4,33.6,21.8-35.9,55.4Zm19.1-84.2l16.4,10.6c4.7,3.1,6.1,9.4,3,14.2l-.4.6-33.6-21.8.4-.6c3.1-4.7,9.4-6.1,14.2-3Zm-53.4,82.2c-4.7-3.1-6.1-9.4-3-14.2l1.5-2.3,33.6,21.8-1.5,2.3c-3.1,4.7-9.4,6.1-14.2,3l-16.4-10.6Z"/>
      <g class="cls-4">
        <circle class="cls-1" cx="300.7" cy="460" r="4"/>
      </g>
      <g class="cls-4">
        <circle class="cls-1" cx="348" cy="387.1" r="4"/>
      </g>
    </g>
    <g>
      <rect class="cls-3" x="802.7" y="686.8" width="190.7" height="86.4" rx="14.2" ry="14.2" transform="translate(1253.8 1831.2) rotate(-147)"/>
      <path class="cls-2" d="m812.2,734.2l117,76c15.2,9.8,35.5,5.5,45.4-9.6l19.1-29.5c9.8-15.2,5.5-35.5-9.6-45.4l-117-76c-15.2-9.8-35.5-5.5-45.4,9.6l-19.1,29.5c-9.8,15.2-5.5,35.5,9.6,45.4Zm18-5.4l39.2-60.4,99.6,64.7-39.2,60.4-99.6-64.7Zm151.4,34.4l-19.1,29.5c-5.5,8.5-17,10.9-25.5,5.4l-1.2-.8,39.2-60.4,1.2.8c8.5,5.5,10.9,17,5.4,25.5Zm-147.9-96c5.5-8.5,17-10.9,25.5-5.4l4.2,2.7-39.2,60.4-4.2-2.7c-8.5-5.5-10.9-17-5.4-25.5l19.1-29.5Z"/>
      <g class="cls-4">
        <circle class="cls-1" cx="833.2" cy="687.8" r="7.2"/>
      </g>
      <g class="cls-4">
        <circle class="cls-1" cx="964.5" cy="773.1" r="7.2"/>
      </g>
    </g>
    <g class="cls-4">
      <polygon class="cls-5" points="833.9 267.4 791.2 66.8 770.1 71.3 764.1 43.1 933 7.2 939.1 35.9 916.3 40.8 958.8 240.8 932.8 246.3 929.1 228.7 858.7 243.7 862.5 261.3 833.9 267.4"/>
      <path class="cls-1" d="m771.6,78.3l14.1-3,41.2,193.6c.8,3.9,4.6,6.4,8.5,5.5l28.6-6.1c3.9-.8,6.4-4.6,5.5-8.5l-2.2-10.6,56.3-12,2.2,10.6c.8,3.9,4.6,6.4,8.5,5.5l26-5.5c3.9-.8,6.4-4.6,5.5-8.5l-41-193,15.8-3.4c3.9-.8,6.4-4.6,5.5-8.5l-6.1-28.7c-.8-3.9-4.6-6.4-8.5-5.5l-168.9,35.9c-3.9.8-6.4,4.6-5.5,8.5l6,28.2c.8,3.9,4.6,6.4,8.5,5.5Zm156,143.4l-70.4,15-21.6,4.6-1.9-8.8,110.9-23.6,1.9,8.8-18.9,4Zm-114.4-86l110.9-23.6,9,42.2-110.9,23.6-9-42.2Zm10.5,49.3l110.9-23.6,8.6,40.5-110.9,23.6-8.6-40.5Zm98.9-79.9l-110.9,23.6-10.1-47.5,110.9-23.6,10.1,47.5Zm-13.4-62.8l1.8,8.2-110.9,23.6-1.9-8.8,110.9-23.6c0,.2,0,.4,0,.6Zm-55.3,213.5l-14.5,3.1-2.2-10.6,14.5-3.1,2.2,10.6Zm84.5-18l-2.2-10.6,11.9-2.5,2.2,10.6-11.9,2.5Zm-165.7-189.1l154.8-32.9,3,14.1-140.8,29.9-8.4,1.8-5.7,1.2-3-14.1Z"/>
      <circle class="cls-1" cx="884.9" cy="194" r="7.2"/>
      <circle class="cls-1" cx="874.1" cy="143" r="7.2"/>
      <circle class="cls-1" cx="862.9" cy="90.2" r="7.2"/>
    </g>
    <g class="cls-4">
      <path class="cls-1" d="m763.7,486.6l-4.9,1c-21.5,4.6-42.7-9.2-47.3-30.7l-1-4.9c-4.6-21.5,9.2-42.7,30.7-47.3l4.9-1c21.5-4.6,42.7,9.2,47.3,30.7l1,4.9c4.6,21.5-9.2,42.7-30.7,47.3Zm-19.6-67.8c-13.7,2.9-22.5,16.5-19.6,30.2l1,4.9c2.9,13.7,16.5,22.5,30.2,19.6l4.9-1c13.7-2.9,22.5-16.5,19.6-30.2l-1-4.9c-2.9-13.7-16.5-22.5-30.2-19.6l-4.9,1Z"/>
      <path class="cls-1" d="m795.8,621.1l-10.4,2.2c-20.6,4.4-41-8.8-45.4-29.5l-15.9-74.9c-.8-3.9,1.7-7.7,5.5-8.5l69.8-14.9c3.9-.8,7.7,1.7,8.5,5.5l16.2,76.2c4.2,19.9-8.5,39.6-28.5,43.8Zm-56.1-98.1l14.4,67.9c2.7,12.9,15.4,21.1,28.3,18.4l10.4-2.2c12.2-2.6,20-14.6,17.4-26.7l-14.7-69.1-55.8,11.9Z"/>
      <path class="cls-1" d="m874.7,463c-22.9,4.9-45.4-9.8-50.3-32.6s9.8-45.4,32.6-50.3,45.4,9.8,50.3,32.6c4.9,22.9-9.8,45.4-32.6,50.3Zm-14.6-68.8c-15.1,3.2-24.8,18.1-21.6,33.2,3.2,15.1,18.1,24.8,33.2,21.6,15.1-3.2,24.8-18.1,21.6-33.2-3.2-15.1-18.1-24.8-33.2-21.6Z"/>
      <path class="cls-1" d="m937.4,590.9l-63.9,13.6c-9.1,1.9-18.5-.3-25.7-6.2-7.2-5.9-11.3-14.7-11.2-24,0-.2,0-.5,0-.7l9.3-83c.3-3.1,2.6-5.6,5.7-6.2l54.5-11.6c3-.6,6,.7,7.6,3.2l44.1,70.5c.1.2.2.3.3.5,4.4,8.6,4.6,18.5.5,27.2-4.1,8.7-11.9,14.9-21.3,16.9Zm-86.4-16.2c0,4.8,2.2,9.3,5.9,12.4,3.8,3.1,8.8,4.3,13.6,3.3l63.9-13.6c5-1.1,9.1-4.3,11.3-8.9,2.1-4.5,2.1-9.7-.2-14.2l-41.3-66-44.5,9.5-8.7,77.5Z"/>
      <path class="cls-5" d="m730,519.5l38,30.1c8,6.4,9.3,18,3,26l-4.1,5.2c-6.6,8.4-18.8,9.8-27.2,3.1l-37.3-29.6,27.6-34.8Z"/>
      <path class="cls-1" d="m757.2,594.7c-.8.2-1.7.3-2.5.4-7,.8-14-1.2-19.5-5.6l-37.3-29.6c-1.5-1.2-2.5-2.9-2.7-4.8-.2-1.9.3-3.8,1.5-5.3l27.6-34.8c2.5-3.1,7-3.6,10.1-1.2l38,30.1c5.4,4.3,8.8,10.4,9.6,17.2.8,6.8-1.1,13.5-5.4,18.9l-4.1,5.2c-3.9,4.9-9.2,8.2-15.2,9.4Zm-44.8-41.6l31.7,25.2c2.5,2,5.7,2.9,8.9,2.6,3.2-.4,6.1-2,8.1-4.5l4.1-5.2c1.9-2.4,2.7-5.3,2.4-8.3s-1.8-5.7-4.2-7.6l-32.3-25.7-18.7,23.5Z"/>
      <rect class="cls-5" x="686.5" y="508.3" width="43.8" height="43.8" rx="12.2" ry="12.2" transform="translate(-147.4 755.2) rotate(-51.5)"/>
      <path class="cls-1" d="m714.4,558.7c-8.2,1.7-17.1,0-24.2-5.7-6.1-4.8-9.9-11.7-10.8-19.5-.9-7.7,1.3-15.3,6.1-21.4h0c10-12.6,28.3-14.7,40.9-4.7,12.6,10,14.7,28.3,4.7,40.9-4.4,5.5-10.3,9-16.7,10.3Zm-17.6-37.6h0c-5,6.3-4,15.6,2.4,20.7,6.3,5,15.6,4,20.7-2.4,5-6.3,4-15.6-2.4-20.7-6.3-5-15.6-4-20.7,2.4Z"/>
      <rect class="cls-5" x="940.1" y="510.2" width="44.4" height="67" transform="translate(-92 212.1) rotate(-12)"/>
      <path class="cls-1" d="m992.5,578.8l-43.5,9.2c-3.9.8-7.7-1.7-8.5-5.5l-13.9-65.5c-.8-3.9,1.7-7.7,5.5-8.5l43.5-9.2c3.9-.8,7.7,1.7,8.5,5.5l13.9,65.5c.8,3.9-1.7,7.7-5.5,8.5Zm-39.4-6.3l29.4-6.2-10.9-51.4-29.4,6.2,10.9,51.4Z"/>
      <rect class="cls-5" x="924.5" y="444.2" width="43.8" height="43.8" rx="12.2" ry="12.2" transform="translate(-76.2 207.1) rotate(-12)"/>
      <path class="cls-1" d="m952.5,494.5c-15.7,3.3-31.2-6.7-34.5-22.4s6.7-31.2,22.4-34.5c15.7-3.3,31.2,6.7,34.5,22.4,3.3,15.7-6.7,31.2-22.4,34.5Zm-9.1-42.8c-7.9,1.7-13,9.5-11.3,17.4s9.5,13,17.4,11.3c7.9-1.7,13-9.5,11.3-17.4-1.7-7.9-9.5-13-17.4-11.3Z"/>
    </g>
  </g>
</svg>