<?xml version="1.0" encoding="UTF-8"?>
<svg id="Layer_1" data-name="Layer 1" xmlns="http://www.w3.org/2000/svg" viewBox="0 0 100.5 123">
  <defs>
    <style>
      .cls-1 {
        fill: #008faa;
      }
    </style>
  </defs>
  <path class="cls-1" d="m27.2,4.3c.2,0,.4.2.3.4-.3,1.4-1.2,5.3-1.5,6.9-.1.7-.4,1.1-1.2,1.3-3.9,1.1-7.7,2.3-11.2,4.3-1.6.9-3.1,1.9-4.2,3.3-1.9,2.3-1.9,5,0,7.3,1.6,1.9,3.8,3.1,6,4.2,4.3,2.1,9,3.3,13.7,4.2,7.4,1.4,15,2,22.5,1.9,5.6,0,11.1-.5,16.6-1.3,6-1,12-2.3,17.5-5.1,2.2-1.1,4-2.5,5.5-4.4,1.6-2,1.6-4,.2-6.1-1.2-1.8-3-3-4.8-4-3.3-1.9-6.9-3-10.5-4-.6-.2-1.3-.2-1.6-.6-.3-.3-.2-1.1-.3-1.6-.1-1.8-1-5-1.3-6.2,0-.2.1-.4.3-.4.5.1,1.1.2,1.6.3,6.2,1.3,12,3.4,17.4,6.7,2.3,1.4,4.4,3.2,5.9,5.5,1.1,1.7,1.8,3.6,2,5.6.3,3,.3,5.9,0,8.9-.2,2.7-1.2,5.1-3.1,7-1.6,1.7-2,3.6-2.2,5.7-.4,4.4-.9,8.7-1.3,13.1-.4,3.8-.8,7.7-1.2,11.5-.4,3.9-.8,7.9-1.2,11.8-.4,3.8-.8,7.7-1.2,11.5-.6,5-1.1,9.9-1.7,14.9-.3,2.4-1.7,4.4-3.2,6.1-2.3,2.5-5.1,4.2-8.2,5.5-4.4,1.9-9,3-13.7,3.8-3.8.6-7.7.7-11.5.7-4,0-7.9,0-11.8-.4-6.7-.8-13.3-2.3-19.3-5.6-3.4-1.9-6.2-4.4-7.8-8-.7-1.5-.9-3.1-1.1-4.7-.6-5.5-1.2-11.1-1.7-16.6-.5-5.1-1-10.3-1.6-15.4-.6-5.5-1.1-11-1.7-16.5-.5-5-1-10-1.5-15,0-.3-.2-.6-.4-.9-.5-.6-1.1-1.2-1.6-1.8-1.9-2.2-2.7-4.7-3-7.5-.3-3-.3-6,.2-9,.6-3.4,2.5-5.9,4.9-8.2,2.8-2.6,6.2-4.3,9.7-5.7,3.9-1.6,8-2.6,12.1-3.5,0,0,0,0,0,0Zm4.1,98.9s0,0,0,0c-.6-5.5-1.1-11.1-1.7-16.6-.6-5.5-1.1-11-1.7-16.5-.6-5.3-1.2-10.6-1.8-15.8,0-.8-.1-1.8-.5-2.5-1-1.8-2.4-3.1-4.6-3.5-2-.4-3.4.8-3.3,2.8.1,2.3.4,4.6.6,6.9.7,7.3,1.5,14.6,2.3,22,.8,7.6,1.7,15.1,2.5,22.7.2,2.2,2.1,4.1,4.2,4.6,1.6.3,4.2-.6,3.9-3.2,0-.3,0-.6,0-.9Zm51.9-51.9c0-1.8-.4-2.6-1.8-3s-.9-.1-1.4,0c-1.9.3-3.3,1.4-4.4,2.9-.3.4-.4.9-.5,1.4-.3,2-.6,4.1-.8,6.1-.6,5.1-1.2,10.1-1.7,15.2-.5,5-1.1,10-1.5,15-.5,5.1-1,10.3-1.4,15.4-.1,1.4,1.1,2.8,2.5,3,2.4.3,5.2-1.8,5.6-4.1.2-1,.3-2,.4-3,.4-3.9.9-7.8,1.3-11.7.5-4.1.9-8.2,1.3-12.3.4-3.8.8-7.7,1.2-11.5.4-4.4.9-8.9,1.3-13.3,0,0,0,0,0,0Zm-28.7,30.8h0c0-6.6,0-13.1,0-19.7,0-2.4-.1-4.8-.2-7.2,0-1.2-1-2.3-2.2-2.4-1.1-.1-2.2-.1-3.3,0-1.1,0-2.1,1.2-2.2,2.3-.1,2-.2,4-.2,6,0,13.3,0,26.5-.1,39.8,0,2.3.1,4.7.2,7,0,1.1.6,1.9,1.4,2.5,1.8,1.3,4.4.9,5.8-.7.6-.7.9-1.3.9-2.2,0-8.4,0-16.9,0-25.3Z"/>
  <path class="cls-1" d="m50.9,0c2.8,0,5.6,0,8.3,0,.2,0,.4,0,.6,0,3.7,1.5,6.7,3.7,8.2,7.5.5,1.3.7,2.5.7,3.9,0,2.5,0,5,0,7.5,0,2.1-.8,3-2.9,3.3-1.6.3-3.2.3-4.7-.6-.7-.4-1.2-1-1.2-1.8,0-1.7,0-3.3-.1-5,0-1.1,0-2.3,0-3.4,0-1.1-.7-1.7-1.4-2.4-.1-.1-.3-.1-.5-.1-4.8,0-9.5,0-14.3,0-1.5,0-2.5.9-2.6,2.4,0,.9,0,1.7,0,2.6,0,1.9-.2,3.8-.2,5.7,0,.9-.4,1.6-1.2,2-2,1.1-4.1,1.2-6.2.2-1-.5-1.4-1.3-1.4-2.4,0-1.7,0-3.3,0-5,0-1.9,0-3.9.3-5.8.7-3.3,2.7-5.7,5.6-7.3C39.8.4,42,0,44.2,0c2.2,0,4.5,0,6.7,0h0Z"/>
</svg>